<svg width="33" height="28" viewBox="0 0 33 28" fill="none" xmlns="http://www.w3.org/2000/svg">
<path d="M21.8452 7.30847C22.2323 7.30847 22.5935 7.302 22.9548 7.31494C23.0258 7.32142 23.1161 7.40557 23.1548 7.47678C23.5355 8.19532 24.1355 8.52547 24.9419 8.519C25.7806 8.51252 26.6194 8.519 27.4581 8.51252C27.7548 8.51252 28.0645 8.51252 28.3548 8.45426C29.8194 8.16943 30.5871 7.12074 31.1355 5.92963C30.9032 5.62538 30.6645 5.3794 30.4903 5.08809C30.3806 4.90684 30.2774 4.82916 30.0774 4.80974C28.9677 4.70616 28.0129 4.25302 27.2129 3.47622C26.7355 3.01013 26.2645 2.53757 25.7935 2.05854C25.2516 1.51478 24.6194 1.21053 23.8387 1.217C22.8839 1.22347 21.9226 1.217 20.9677 1.22347C20.8516 1.22347 20.7419 1.23642 20.6 1.24289C20.6 1.45004 20.6 1.61835 20.6 1.79313C20.6 3.57332 20.6 5.3535 20.6 7.13369C20.6 8.54489 20.0645 9.71657 18.8129 10.3833C18.2129 10.7005 18.0968 11.0695 18.1742 11.6392C18.2 11.8398 18.1161 11.9499 17.9484 12.047C16.8194 12.6943 15.6968 13.3417 14.5806 14.0149C12.471 15.2837 10.3548 16.5395 8.27742 17.8536C6.56774 18.9347 5.76129 20.9285 6.14839 22.8641C6.6129 25.1686 8.54194 26.7481 10.9419 26.7675C12.7161 26.7805 14.4903 26.774 16.2645 26.774C16.4645 26.774 16.6645 26.774 16.9161 26.774C16.3935 25.8353 15.4258 25.6606 14.6129 25.2204C15.2387 24.1393 15.7613 23.0453 15.7161 21.77C15.671 20.4948 15.2129 19.4073 14.3548 18.4945C14.6452 18.1967 14.9161 17.9184 15.2 17.6335C16.4065 18.8829 16.9484 20.3912 16.9484 22.029C17.7677 21.9707 18.5613 21.9125 19.4 21.8542C19.4 21.4787 19.4 21.0968 19.4 20.689C19.6968 20.689 19.9548 20.7084 20.2065 20.6825C20.5097 20.6566 20.6129 20.7472 20.6065 21.0709C20.5935 22.8317 20.6 24.586 20.6 26.3467C20.6 26.4827 20.6 26.6186 20.6 26.7481C22.1161 26.7481 23.5806 26.7481 25.071 26.7481C24.3871 25.5829 23.2194 25.6152 22.1161 25.4405C22.2774 24.1652 22.4323 22.9029 22.6 21.6471C22.6129 21.5499 22.7161 21.4464 22.8 21.3816C23.1613 21.0968 23.5548 20.8443 23.9032 20.5466C25.3032 19.3684 25.8387 17.1092 25.1613 15.4067C24.7613 14.4098 24.0774 13.6589 23.2581 13.0115C23.0774 12.8691 23.0065 12.7267 23.0129 12.5001C23.0258 11.4968 23.0129 10.4934 23.0258 9.49001C23.0323 9.25049 22.9484 9.09513 22.7742 8.94624C22.2903 8.519 21.9742 7.99465 21.8452 7.30847ZM33 4.87447C33 5.08809 32.9419 5.30171 32.8387 5.48944C32.4387 6.1821 32.0387 6.90712 31.5871 7.5933C30.7032 8.93977 29.4323 9.67126 27.8194 9.72952C26.8645 9.76836 25.9032 9.736 24.9484 9.736C24.7226 9.736 24.5032 9.736 24.2452 9.736C24.2452 10.4804 24.2516 11.1925 24.2387 11.8981C24.2323 12.1117 24.2903 12.2541 24.4581 12.3901C25.5613 13.3158 26.2968 14.4681 26.5419 15.8987C26.9677 18.4233 26.129 20.4559 24.0903 21.9837C23.8581 22.1584 23.7226 22.3268 23.6968 22.6245C23.6452 23.2071 23.5613 23.7897 23.4903 24.3853C24.1806 24.5018 24.7871 24.7219 25.2839 25.1556C25.6 25.434 25.9032 25.7577 26.129 26.1202C26.6645 26.9617 26.1161 27.9716 25.1161 27.9845C23.6452 28.0104 22.1677 27.9975 20.6968 27.991C19.9806 27.991 19.4 27.4019 19.3935 26.6834C19.3935 25.6217 19.3935 24.5666 19.3935 23.5049C19.3935 23.3884 19.3935 23.2719 19.3935 23.1554C18.8 23.1554 18.2387 23.1359 17.6839 23.1618C17.3226 23.1812 17.0258 23.3884 16.8323 23.6862C16.6323 23.9839 16.471 24.3141 16.2839 24.6442C17.0258 24.9873 17.5806 25.4793 17.9806 26.1461C18.2903 26.6639 18.2129 27.2401 17.7871 27.6479C17.4839 27.9392 17.1161 27.991 16.7161 27.991C11.7806 27.9845 6.84516 27.991 1.90968 27.9845C1.74194 27.9845 1.56129 27.9716 1.4 27.9327C0.851613 27.8033 0.464516 27.4925 0.206452 27.0135C0.0645161 26.7546 0 26.4633 0 26.1655C0 25.8483 0.0838709 25.544 0.23871 25.2722C0.645161 24.586 1.17419 24.3465 2.09677 24.3465C3.16774 24.3529 4.24516 24.3465 5.35484 24.3465C5.30323 24.2105 5.26452 24.1005 5.22581 23.9969C4.34194 21.6794 5.04516 18.8311 7.0129 17.3358C8.37419 16.3065 9.83871 15.4132 11.2968 14.5198C13.0839 13.4258 14.9161 12.3966 16.7226 11.3349C16.8387 11.2702 16.9161 11.1407 17.071 10.9854C16.8968 10.9595 16.8452 10.953 16.7935 10.9465C15.3548 10.8365 14.4065 10.0338 13.7548 8.80382C13.3419 8.02054 13.3355 7.17253 13.3355 6.31804C13.3419 5.37292 13.6516 4.56375 14.3097 3.89699C15.2387 2.95187 16.1742 2.01323 17.1161 1.08106C17.7871 0.420771 18.5871 0.0258936 19.5355 0.0129468C21.0387 -0.0064734 22.5484 0 24.0516 0.0064734C24.9613 0.0129468 25.7548 0.34309 26.4129 0.964537C26.929 1.45004 27.4 1.98733 27.9355 2.45989C28.329 2.80298 28.7613 3.12665 29.2194 3.35322C29.9548 3.70926 30.7677 3.65747 31.5613 3.64452C32.0903 3.63805 32.5161 3.77399 32.8064 4.20124C32.9355 4.40191 33 4.63495 33 4.87447ZM19.4 1.29468C18.8323 1.33352 18.3613 1.55362 17.8968 2.01323C16.9871 2.9195 16.0903 3.82578 15.1806 4.73206C14.7806 5.12693 14.5484 5.59949 14.5484 6.16915C14.5484 6.62229 14.5355 7.07543 14.5742 7.52856C14.6903 9.03039 16.2258 10.0597 17.6516 9.613C18.7548 9.26991 19.3871 8.37011 19.3935 7.14016C19.3935 5.30819 19.3935 3.47622 19.3935 1.64424C19.4 1.52772 19.4 1.4112 19.4 1.29468ZM7.1871 26.774C6.83871 26.3985 6.52903 26.049 6.20645 25.7253C6.12903 25.6476 5.9871 25.5894 5.87742 25.5894C4.5871 25.5764 3.29677 25.5764 2.0129 25.5699C1.90323 25.5699 1.8 25.5764 1.69032 25.5894C1.4129 25.6411 1.21935 25.8742 1.2129 26.159C1.20645 26.4568 1.40645 26.7028 1.70323 26.7481C1.85161 26.7675 2 26.7675 2.15484 26.7675C3.14194 26.7675 4.12903 26.7675 5.11613 26.7675C5.8 26.774 6.48387 26.774 7.1871 26.774Z" fill="black"/>
<path d="M26.0581 3.97467C26.0516 4.47312 25.6452 4.87447 25.1484 4.868C24.6516 4.86152 24.2452 4.4537 24.2452 3.96172C24.2452 3.45032 24.6581 3.0425 25.1742 3.04897C25.671 3.06192 26.0645 3.46974 26.0581 3.97467Z" fill="black"/>
</svg>
