<svg width="34" height="34" viewBox="0 0 34 34" fill="none" xmlns="http://www.w3.org/2000/svg">
<path fill-rule="evenodd" clip-rule="evenodd" d="M17.0589 0L0.117676 12.75V15.9569C0.117676 16.5142 0.569447 16.966 1.12673 16.966C1.68402 16.966 2.13579 16.5142 2.13579 15.9569V14.841H6.47062V14.8812C6.47062 16.0326 7.40402 16.966 8.55544 16.966C9.70686 16.966 10.6403 16.0326 10.6403 14.8812V14.841H14.9751C14.9751 16.0105 15.9232 16.966 17.0927 16.966V29.6841H19.1003V16.966H19.1109V14.841H23.5113V14.8981C23.5113 16.0402 24.4371 16.966 25.5792 16.966C26.7213 16.966 27.6471 16.0402 27.6471 14.8981V14.841H31.9163V15.9241C31.9163 16.4995 32.3827 16.966 32.9581 16.966C33.5336 16.966 34 16.4995 34 15.9241V12.75L17.0589 0Z" fill="#4A4A4A"/>
<path fill-rule="evenodd" clip-rule="evenodd" d="M4.83791 23.409H1.16318C0.585763 23.409 0.117676 23.8771 0.117676 24.4545C0.117676 25.0319 0.585762 25.5 1.16318 25.5H3.67109L10.7483 31.8622L12.8892 31.841V33.9341H14.8756V31.841H17.1245V33.9341H19.1765V31.841H27.7466V33.9341H29.7647V31.841H30.803C31.3804 31.841 31.8485 31.3729 31.8485 30.7955C31.8485 30.2181 31.3804 29.75 30.803 29.75H11.896L4.83791 23.409Z" fill="#4A4A4A"/>
</svg>
