<svg width="21" height="29" viewBox="0 0 21 29" fill="none" xmlns="http://www.w3.org/2000/svg">
<path d="M19.9999 10H9.99986C9.73464 10 9.48029 10.1054 9.29275 10.2929C9.10522 10.4804 8.99986 10.7348 8.99986 11V15C9.00229 16.4166 9.50546 17.7867 10.4204 18.8682C11.3354 19.9497 12.6032 20.6729 13.9999 20.91V27H10.9999V29H18.9999V27H15.9999V20.91C17.3965 20.6729 18.6643 19.9497 19.5793 18.8682C20.4943 17.7867 20.9974 16.4166 20.9999 15V11C20.9999 10.7348 20.8945 10.4804 20.707 10.2929C20.5194 10.1054 20.2651 10 19.9999 10ZM18.9999 15C18.9999 16.0609 18.5784 17.0783 17.8283 17.8284C17.0781 18.5786 16.0607 19 14.9999 19C13.939 19 12.9216 18.5786 12.1714 17.8284C11.4213 17.0783 10.9999 16.0609 10.9999 15V12H18.9999V15Z" fill="#4A4A4A"/>
<path d="M9.99986 0H4.99986C4.73464 0 4.48029 0.105357 4.29275 0.292893C4.10522 0.48043 3.99986 0.734784 3.99986 1V8.37C3.02814 8.93928 2.23331 9.76686 1.7037 10.7608C1.17409 11.7547 0.93045 12.8759 0.999861 14V28C0.999861 28.2652 1.10522 28.5196 1.29275 28.7071C1.48029 28.8946 1.73464 29 1.99986 29H6.99986V27H2.99986V14C2.99986 10.812 5.23086 9.98 5.31586 9.949L5.99986 9.72V2H8.99986V7H10.9999V1C10.9999 0.734784 10.8945 0.48043 10.707 0.292893C10.5194 0.105357 10.2651 0 9.99986 0Z" fill="#4A4A4A"/>
</svg>
