<svg width="27" height="27" viewBox="0 0 27 27" fill="none" xmlns="http://www.w3.org/2000/svg">
<path d="M23.6399 0C23.6616 0.015811 23.6779 0.0368924 23.705 0.0474331C24.3398 0.363654 24.3941 1.00137 23.8244 1.41772C22.6361 2.2926 21.4532 3.17275 20.2594 4.04236C20.1075 4.15303 20.0424 4.26898 20.0478 4.45344C20.0587 5.82374 20.0532 7.19403 20.0532 8.56432C20.0532 9.05973 19.8579 9.31798 19.4943 9.31271C19.1417 9.30744 18.9626 9.05446 18.968 8.56959C18.968 7.52606 18.968 6.47726 18.9734 5.43373C18.9734 5.31251 18.9734 5.19656 18.9734 5.0121C18.7944 5.13859 18.6642 5.22819 18.5394 5.32305C16.5154 6.81456 14.4969 8.31134 12.4676 9.79758C12.3156 9.90826 12.2559 10.0295 12.2614 10.2139C12.2668 11.6738 12.2614 13.1284 12.2668 14.5883C12.2668 14.8571 12.1908 15.0785 11.9141 15.1786C11.5234 15.3209 11.187 15.0468 11.1816 14.5883C11.1762 13.861 11.1816 13.1284 11.1816 12.4011C11.1816 11.8741 11.1816 11.3471 11.1816 10.7831C11.1002 10.8306 11.0405 10.8569 10.9917 10.8991C8.85379 12.4749 6.71591 14.0508 4.58345 15.6371C4.49121 15.7056 4.41525 15.8638 4.40982 15.9797C4.39897 17.4659 4.40439 18.9469 4.39897 20.4331C4.39897 20.5385 4.40439 20.6492 4.37726 20.7494C4.31215 20.9813 4.14937 21.1236 3.89434 21.1446C3.64474 21.1605 3.43312 21.0287 3.36258 20.7863C3.33003 20.6808 3.31917 20.5596 3.31917 20.449C3.31375 19.2473 3.31917 18.0404 3.31917 16.8388C3.31917 16.7703 3.31917 16.7017 3.31917 16.5963C3.23236 16.649 3.17267 16.6807 3.12384 16.7175C2.52697 17.155 1.92467 17.5977 1.3278 18.0351C1.09448 18.2091 0.839452 18.3092 0.546443 18.2196C0.264286 18.1405 0.0797994 17.9508 0.0201124 17.6715C-0.0450007 17.3605 0.0472428 17.097 0.307695 16.902C0.888287 16.4698 1.46888 16.0377 2.0549 15.6055C5.71208 12.9071 9.36927 10.2087 13.0265 7.51025C16.2875 5.08062 19.5757 2.65099 22.8694 0.226625C22.9888 0.137029 23.1298 0.0737849 23.2601 0C23.3849 0 23.5151 0 23.6399 0Z" fill="black"/>
<path d="M24.1934 9.79759C24.6491 9.79759 25.1049 9.79759 25.5499 9.80286C25.5553 10.8411 25.5553 11.8899 25.5553 12.9071C25.5553 13.2286 25.5553 13.5501 25.5553 13.8716C25.5553 18.0931 25.5553 21.9247 25.5499 25.5612C23.0159 25.5612 20.4819 25.5612 17.9479 25.5612H14.8116C12.6575 25.5612 10.5088 25.5612 8.3546 25.5612C6.59112 25.5612 4.83307 25.5612 3.06959 25.5612V25.5454C3.06959 25.2502 3.06959 24.9498 3.06959 24.6494C3.2595 24.6494 3.47112 24.6494 3.70444 24.6494C3.92148 24.6494 4.1331 24.6494 4.35014 24.6494C4.56719 24.6494 4.78423 24.6494 5.00127 24.6494H5.43536C6.21129 24.6494 6.85157 24.0644 6.90041 23.3108C6.90041 23.2844 6.90583 23.2581 6.90583 23.237C6.91126 23.1632 6.91668 23.0683 6.91668 22.9576C6.91668 22.7099 6.91668 22.4622 6.91668 22.2145C6.91668 22.0406 6.91668 21.8667 6.91668 21.6928C7.13915 21.6928 7.36705 21.6928 7.58952 21.6928C7.83912 21.6928 8.08872 21.6928 8.33832 21.6928C8.58792 21.6928 8.83752 21.6928 9.08712 21.6928H9.41269C10.1832 21.6928 10.8235 21.113 10.8723 20.3646C10.8723 20.333 10.8777 20.3014 10.8777 20.275C10.8832 20.1854 10.894 20.0748 10.894 19.9535C10.894 19.7111 10.894 19.4687 10.894 19.2315C10.894 19.0734 10.894 18.91 10.894 18.7466C11.4855 18.7466 12.0606 18.7466 12.549 18.7466H13.1296C13.2327 18.7466 13.3195 18.7414 13.4009 18.7361C13.428 18.7361 13.4605 18.7308 13.4931 18.7308C14.2745 18.6939 14.8876 18.0668 14.8876 17.3078V16.8282C14.8876 16.4751 14.8876 16.1325 14.8876 15.7952C15.1806 15.7952 15.4573 15.7952 15.6798 15.7952C15.8752 15.7952 16.0705 15.7952 16.2658 15.7952C16.4612 15.7952 16.6619 15.7952 16.8573 15.7952H17.3945C18.2029 15.7952 18.8595 15.1575 18.8595 14.3722V13.9401C18.8595 13.5659 18.8595 13.2075 18.8595 12.8438C19.0603 12.8438 19.2827 12.8438 19.5269 12.8438C19.7765 12.8438 20.0261 12.8438 20.2703 12.8438C20.5199 12.8438 20.7695 12.8438 21.0191 12.8438H21.3826C22.1911 12.8438 22.8477 12.2061 22.8477 11.4209V11.1257C22.8477 10.9465 22.8477 10.7621 22.8477 10.5829C22.8477 10.3246 22.8477 10.0611 22.8477 9.79759C23.3143 9.79759 23.7593 9.79759 24.1934 9.79759ZM24.1934 8.37459C23.6019 8.37459 23.0105 8.37459 22.4244 8.37986C21.8384 8.38513 21.4206 8.79095 21.4098 9.36542C21.3989 9.9557 21.4043 10.5407 21.4043 11.131C21.4043 11.2258 21.4043 11.3154 21.4043 11.4314C21.3121 11.4314 21.2416 11.4314 21.171 11.4314C21.1385 11.4314 21.1059 11.4314 21.0734 11.4314C21.0625 11.4314 21.0516 11.4314 21.0408 11.4314C20.5416 11.4314 20.0424 11.4314 19.5432 11.4314C19.1851 11.4314 18.827 11.4314 18.4634 11.4367C17.8557 11.4419 17.465 11.8056 17.4107 12.3906C17.3999 12.4855 17.4053 12.5856 17.4053 12.6805C17.4053 13.2391 17.4053 13.7978 17.4053 14.3881C17.3131 14.3881 17.2371 14.3881 17.172 14.3881C17.134 14.3881 17.0906 14.3881 17.0526 14.3881C16.9929 14.3881 16.9332 14.3881 16.8681 14.3881C16.4775 14.3881 16.0814 14.3881 15.6907 14.3881C15.2674 14.3881 14.8442 14.3881 14.421 14.3933C13.9272 14.3986 13.5474 14.7095 13.4497 15.1575C13.4226 15.284 13.428 15.421 13.428 15.5528C13.428 16.1378 13.428 16.7228 13.428 17.3236C13.3086 17.3289 13.2218 17.3395 13.135 17.3395C12.9396 17.3395 12.7497 17.3395 12.5544 17.3395C11.925 17.3395 11.2955 17.3395 10.6661 17.3395C10.6607 17.3395 10.6607 17.3395 10.6553 17.3395C9.80879 17.3395 9.43439 17.6978 9.42896 18.52C9.42896 19.0049 9.43439 19.4845 9.42896 19.9694C9.42896 20.0695 9.41811 20.1696 9.40726 20.2908C9.28246 20.2908 9.18479 20.2908 9.08169 20.2908C8.58249 20.2908 8.08329 20.2908 7.58409 20.2908C7.26395 20.2908 6.93839 20.2908 6.61825 20.2908C5.83689 20.2908 5.45164 20.665 5.44621 21.4187C5.44621 21.9352 5.44621 22.457 5.44621 22.9735C5.44621 23.0578 5.43536 23.1421 5.42994 23.2422C5.34312 23.2422 5.26715 23.2422 5.19661 23.2422C5.15863 23.2422 5.12065 23.2422 5.07724 23.2422C5.05011 23.2422 5.02298 23.2422 4.99042 23.2422C4.55633 23.2422 4.12225 23.2422 3.68816 23.2422C3.33546 23.2422 2.98277 23.2422 2.63007 23.2475C1.98979 23.2581 1.58826 23.6586 1.58826 24.2805C1.58826 24.7917 1.58826 25.2977 1.58826 25.8089C1.58826 26.6311 1.96809 27 2.80371 27C6.79731 27 10.7963 27 14.7899 27C18.4851 27 22.1857 27 25.8809 27C25.9948 27 26.1196 26.9947 26.2281 26.9684C26.7382 26.8419 26.9878 26.4782 26.9932 25.8721C26.9932 21.8772 26.9932 17.8823 26.9986 13.8874C26.9986 12.3959 27.0041 10.8991 26.9932 9.40758C26.9878 8.8173 26.5808 8.40094 26.0111 8.39567C25.4196 8.37459 24.8065 8.37459 24.1934 8.37459Z" fill="black"/>
</svg>
