<svg width="31" height="28" viewBox="0 0 31 28" fill="none" xmlns="http://www.w3.org/2000/svg">
<path d="M30.9928 24.9628C30.9928 24.8411 30.9928 24.7045 30.9592 24.562C30.7939 23.8346 30.1881 23.3625 29.4109 23.3596C29.2395 23.3596 29.0559 23.3596 28.8326 23.3596C28.6796 23.3596 28.5266 23.3596 28.3705 23.3596C28.3154 23.3596 28.2573 23.3596 28.2022 23.3596V7.41342C28.5755 7.29467 28.8938 7.0809 29.1294 6.78995C29.4262 6.4218 29.57 5.95271 29.5455 5.43315C29.5333 5.19563 29.5363 4.95812 29.5394 4.70873C29.5394 4.69091 29.5394 4.67013 29.5394 4.65232C29.9311 4.63153 30.2921 4.47121 30.5645 4.19807C30.8613 3.90118 31.0143 3.50037 30.999 3.07284C30.9867 2.74329 30.9898 2.40484 30.9928 2.07825C30.9928 1.89715 30.9959 1.7101 30.9959 1.52306C30.9959 1.38649 30.9837 1.2707 30.9592 1.16679C30.8796 0.819425 30.6899 0.52847 30.4084 0.317676C30.1269 0.112819 29.7811 0.00296893 29.4048 0.00296893C29.1783 0.00296893 28.9488 0.00296893 28.7224 0.00296893C28.3613 0.00296893 27.9972 0.00296893 27.6361 0.00296893H25.4116C24.4233 0.00296893 23.4349 0.00296893 22.4435 0.00296893C21.3511 0.00296893 20.2557 0.00296893 19.1633 0.00296893C17.1316 0.00296893 15.0998 0.00296893 13.0681 0.00296893C11.9267 0.00296893 10.7854 0.00296893 9.64098 0.00296893C8.23956 0.00296893 6.83507 0.00296893 5.43365 0.00296893H5.41529C4.87675 0.00296893 4.32597 0.00296893 3.79661 0C3.26725 0.00296893 2.71953 0.00296893 2.17793 0.00296893C1.97292 0.00296893 1.76791 0.00296893 1.5629 0.00296893C1.15593 0.00296893 0.776509 0.13954 0.495 0.38893C0.204311 0.644258 0.0360175 1.00053 0.0176582 1.39243C-0.00682085 1.98918 -0.00682085 2.61563 0.023778 3.30145C0.0390774 3.6221 0.173712 3.93384 0.409323 4.17729C0.635754 4.41183 0.941742 4.56919 1.26915 4.62263C1.33341 4.63153 1.39766 4.64044 1.46192 4.64341C1.46192 4.68498 1.46192 4.72357 1.46192 4.76217C1.45886 5.05609 1.45886 5.36189 1.46498 5.66175C1.48334 6.36836 1.82911 6.92355 2.46556 7.26498C2.57878 7.32436 2.69199 7.36592 2.80215 7.40749V23.3625C2.68281 23.3625 2.56042 23.3596 2.44414 23.3596C2.24831 23.3566 2.04636 23.3566 1.84747 23.3566C1.72813 23.3566 1.62104 23.3566 1.517 23.3596C0.73367 23.3714 0.0635564 23.9801 0.023778 24.7223C0.00235879 25.1201 0.00541867 25.5239 0.00541867 25.9128C0.00541867 26.0257 0.00541867 26.1385 0.00847855 26.2513V26.2572C0.00847855 26.4354 0.00847855 26.6194 0.048257 26.8095C0.115574 27.136 0.302227 27.4329 0.574556 27.6467C0.868305 27.8783 1.24161 28 1.65469 28H1.66387C2.47168 27.997 3.34069 27.9941 4.40553 27.9941C5.06034 27.9941 5.7274 27.9941 6.36997 27.9941C7.01561 27.9941 7.6796 27.9941 8.33747 27.9941H9.57673C12.352 27.9941 15.2222 27.9941 18.0465 27.9941C19.0471 27.9941 20.066 27.9911 21.0513 27.9911C22.1834 27.9911 23.3523 27.9881 24.5028 27.9881H24.5885C25.3321 27.9881 26.0878 27.9881 26.8161 27.9911C27.5474 27.9911 28.3032 27.9941 29.0467 27.9941C29.1538 27.9941 29.2609 27.9941 29.365 27.9941C29.8393 27.9941 30.2462 27.8426 30.543 27.5547C30.8368 27.2696 30.9928 26.8748 30.9928 26.4146V26.3374C30.9928 25.895 30.9959 25.4378 30.9928 24.9865V24.9628ZM1.62104 3.43802H1.61798C1.50782 3.43802 1.40378 3.39943 1.33953 3.33708C1.28445 3.28067 1.25691 3.20348 1.25997 3.1055C1.27221 2.74923 1.26915 2.38999 1.26609 2.04263C1.26609 1.8734 1.26303 1.69823 1.26303 1.52603C1.26303 1.33305 1.35177 1.24101 1.55066 1.2232C1.57208 1.22023 1.59656 1.22023 1.61492 1.22023C1.62716 1.22023 1.6394 1.22023 1.65163 1.22023C1.66693 1.22023 1.67917 1.22023 1.69447 1.22023H7.96723C9.11162 1.22023 10.256 1.22023 11.4004 1.22023C12.6366 1.22023 13.8728 1.22023 15.1121 1.22023H15.4364C16.593 1.22023 17.7497 1.22023 18.9063 1.22023C19.8793 1.22023 20.8524 1.22023 21.8254 1.22023C22.4558 1.22023 23.0861 1.22023 23.7164 1.22023C24.3651 1.22023 25.0108 1.22023 25.6595 1.22023C27.1496 1.22023 28.291 1.22023 29.365 1.21429H29.368C29.5027 1.21429 29.6128 1.25289 29.6801 1.32414C29.7352 1.38352 29.7597 1.46368 29.7505 1.55275C29.7413 1.64776 29.7444 1.73683 29.7475 1.81402C29.7475 1.85261 29.7505 1.88824 29.7505 1.9209C29.7505 2.04263 29.7475 2.16435 29.7475 2.28608C29.7444 2.55922 29.7383 2.84127 29.7536 3.12629C29.7566 3.20051 29.726 3.27473 29.671 3.33411C29.6067 3.4024 29.5119 3.43802 29.4048 3.43802H29.4017C28.701 3.43505 27.9299 3.43209 26.9783 3.43209C26.4979 3.43209 26.0175 3.43209 25.5371 3.43209C25.0597 3.43209 24.5854 3.43209 24.1081 3.43209H15.516C15.4854 3.43209 15.4578 3.43505 15.4303 3.44396C15.21 3.44396 14.9897 3.44396 14.7724 3.44396C14.5246 3.44396 14.2767 3.44396 14.0289 3.44396C13.7351 3.44396 13.4414 3.44396 13.1476 3.44396C12.1164 3.44396 11.0852 3.44099 10.0541 3.43802C8.67712 3.43505 7.25428 3.43209 5.85285 3.43209C5.61724 3.43209 5.37857 3.43209 5.14296 3.43209C4.65644 3.43209 4.15462 3.43209 3.65892 3.43209C2.86335 3.43209 2.21771 3.43505 1.62104 3.43802ZM2.71341 5.5519C2.71341 5.28173 2.71341 5.01453 2.71341 4.73248C2.71341 4.70576 2.71341 4.67904 2.71341 4.65232H28.2695C28.2695 4.70576 28.2726 4.7592 28.2726 4.81264C28.2787 5.1511 28.2848 5.46877 28.2604 5.78348C28.2389 6.05959 27.9483 6.27929 27.6055 6.27929C27.0578 6.28226 26.5162 6.28226 26.0603 6.28226C25.8798 6.28226 25.6962 6.28226 25.5156 6.28226C25.3351 6.28226 25.1515 6.28226 24.971 6.28226H24.7017C23.8817 6.28226 23.0616 6.28226 22.2416 6.28226C20.2527 6.28226 18.1964 6.28523 16.1708 6.28523H16.1188C14.2063 6.28523 12.2633 6.28523 10.3845 6.28226C9.43597 6.28226 8.48741 6.28226 7.53579 6.28226C7.2451 6.28226 6.95441 6.28226 6.66372 6.28226H5.78859C5.09094 6.28226 4.27701 6.28226 3.4692 6.27929C2.98268 6.27929 2.71647 6.02099 2.71341 5.5519ZM23.6093 14.3192C23.6093 14.1202 23.6093 13.9213 23.6124 13.7254C23.6155 13.2028 23.6216 12.6625 23.594 12.1281C23.5481 11.178 22.8291 10.3438 21.8438 10.1033C21.6449 10.0558 21.4276 10.0291 21.1951 10.0291C19.353 10.0261 17.5447 10.0261 16.0178 10.0261C15.3966 10.0261 14.7755 10.0261 14.1543 10.0261H12.4561C12.1807 10.0261 11.9053 10.0261 11.6299 10.0261C11.3545 10.0261 11.0791 10.0261 10.8037 10.0261C10.4733 10.0261 10.1428 10.0261 9.8154 10.0261C9.20954 10.0261 8.66488 10.2072 8.24262 10.5516C7.81729 10.896 7.53579 11.3829 7.42257 11.9589C7.39503 12.0984 7.39503 12.2409 7.39503 12.3537C7.39503 14.9723 7.39503 17.5909 7.39503 20.2066V23.3507H4.06588V7.50546H26.9324V23.3477H23.6093V21.0408C23.6093 18.8379 23.6093 16.5607 23.6093 14.3192ZM22.364 13.4136C22.367 13.5532 22.367 13.7016 22.367 13.8412C22.367 13.9065 22.364 13.9688 22.364 14.0371C22.3609 14.1084 22.3609 14.1826 22.3609 14.2568C22.3609 16.3796 22.3609 18.5024 22.3609 20.6252V23.3566H8.64346V20.5777C8.64346 18.4371 8.64346 16.2965 8.64346 14.1559V13.9302C8.64346 13.3958 8.64346 12.8466 8.64958 12.3033C8.6557 11.7213 9.1514 11.2463 9.7542 11.2433C10.6079 11.2433 11.5412 11.2433 12.6947 11.2433C13.2914 11.2433 13.8881 11.2433 14.4878 11.2433C15.0784 11.2433 15.6659 11.2433 16.2564 11.2433C16.7368 11.2433 17.2264 11.2433 17.6977 11.2463C18.1719 11.2463 18.6585 11.2493 19.1419 11.2493C19.9283 11.2493 20.5739 11.2463 21.1706 11.2404C21.1767 11.2404 21.1798 11.2404 21.1859 11.2404C21.5256 11.2404 21.8346 11.3651 22.0549 11.5907C22.2844 11.8253 22.3946 12.1429 22.3762 12.514C22.3548 12.8139 22.3609 13.1197 22.364 13.4136ZM29.7383 26.4472C29.7383 26.6729 29.6281 26.7798 29.3956 26.7798C28.6367 26.7798 27.8809 26.7798 27.1221 26.7798C26.605 26.7798 26.0878 26.7798 25.5677 26.7798C25.0934 26.7798 24.6222 26.7798 24.1479 26.7798H5.74576C5.37245 26.7798 4.99608 26.7798 4.6289 26.7768C4.26171 26.7768 3.88535 26.7738 3.51204 26.7738C2.78685 26.7738 2.19935 26.7768 1.66387 26.7827H1.65775C1.5323 26.7827 1.4252 26.7441 1.35483 26.6729C1.28751 26.6046 1.25691 26.5126 1.26303 26.3968C1.28751 25.9128 1.28751 25.4259 1.26303 24.945C1.25691 24.8351 1.28751 24.746 1.35177 24.6807C1.4252 24.6065 1.54454 24.5649 1.67611 24.5649H1.67917C3.13568 24.5679 4.69622 24.5709 6.74022 24.5709C7.56638 24.5709 8.39255 24.5709 9.21872 24.5709C9.89801 24.5709 10.5773 24.5709 11.2566 24.5709C13.4383 24.5709 15.62 24.5709 17.8047 24.5709C20.3903 24.5709 22.9729 24.5709 25.5585 24.5709H25.6962C26.6233 24.5709 27.5688 24.5709 28.4807 24.5739H29.3527C29.6404 24.5739 29.7475 24.6778 29.7475 24.9509V25.1469C29.7383 25.5714 29.7413 26.0138 29.7383 26.4472Z" fill="black"/>
<path d="M16.3054 18.7666C16.2411 18.535 16.2289 18.2886 16.1922 18.0333C16.1708 18.0689 16.1524 18.0927 16.1402 18.1164C15.8923 18.5796 15.7852 19.0665 15.8495 19.589C15.8587 19.6751 15.8556 19.7701 15.8219 19.8473C15.7087 20.1175 15.3752 20.1709 15.1365 19.972C14.9835 19.8414 14.8244 19.7226 14.6531 19.586C14.5154 20.0908 14.7173 20.5599 15.1885 20.8211C15.5802 21.0379 15.9933 21.0289 16.388 20.8211C16.7277 20.64 16.8286 20.2392 16.6757 19.8384C16.541 19.4851 16.4094 19.1288 16.3054 18.7666Z" fill="black"/>
<path d="M19.6315 17.49C19.5856 17.3089 19.4448 17.1901 19.2613 17.1248C18.9553 17.0209 18.6738 17.1426 18.484 17.4454C18.4443 17.5078 18.3739 17.5939 18.3157 17.5939C18.2576 17.5939 18.1964 17.5048 18.1413 17.4514C18.1199 17.4276 18.1077 17.395 18.0924 17.3653C17.7435 16.7032 17.5814 15.9907 17.4988 15.2573C17.407 14.4557 17.4131 13.6541 17.4926 12.8525C17.5202 12.5823 17.4253 12.3626 17.1714 12.232C16.9235 12.1043 16.691 12.1489 16.4706 12.3092C16.0055 12.6536 15.6231 13.0663 15.3232 13.5532C14.8122 14.3845 14.5705 15.293 14.494 16.2519C14.4817 16.4152 14.4695 16.5755 14.4572 16.7388C14.4266 16.7121 14.4113 16.6884 14.4052 16.6616C14.3257 16.2787 14.2339 15.8957 14.1788 15.5097C14.1237 15.1326 13.7963 14.8744 13.4261 14.9723C13.2914 15.008 13.1445 15.097 13.065 15.2039C12.5938 15.8422 12.3582 16.5518 12.5081 17.3415C12.5632 17.6266 12.6672 17.9027 12.7498 18.1817C12.5571 18.1224 12.3888 18.0006 12.2266 17.8611C12.0338 17.6978 11.7645 17.6711 11.5381 17.7839C11.3147 17.8967 11.1954 18.1283 11.2199 18.3807C11.2658 18.8557 11.3637 19.3218 11.5198 19.7731C11.7737 20.5005 12.1593 21.1388 12.7376 21.6435C13.4689 22.3501 14.5062 22.549 14.5062 22.549C15.2803 22.745 16.0606 22.7509 16.8409 22.5342C18.1107 22.1809 19.0501 21.4446 19.5642 20.2422C19.9497 19.3367 19.864 18.4103 19.6315 17.49ZM16.1922 21.5218C15.8801 21.5812 15.571 21.5723 15.262 21.4921C15.2497 21.4891 15.2375 21.4862 15.2253 21.4802C14.3318 21.2605 14.0778 20.3936 14.0778 20.3936C13.9707 20.067 13.9738 19.7375 14.0686 19.4079C14.1635 19.0813 14.5399 18.918 14.8703 19.0605C14.9866 19.111 15.0968 19.1793 15.1977 19.2357C15.2528 18.9626 15.2926 18.6805 15.3691 18.4074C15.4976 17.9531 15.7424 17.5494 16.0453 17.1812C16.1769 17.0209 16.3544 16.9793 16.5349 17.0446C16.7063 17.107 16.8042 17.2525 16.8011 17.4544C16.7889 18.066 16.8409 18.6657 17.0673 19.2446C17.1499 19.4584 17.2662 19.6632 17.3182 19.8829C17.4988 20.6697 17.0092 21.3674 16.1922 21.5218Z" fill="black"/>
</svg>
