<svg width="36" height="28" viewBox="0 0 36 28" fill="none" xmlns="http://www.w3.org/2000/svg">
<path d="M22.7347 15.4584C21.6688 17.3351 20.596 19.2118 19.4953 21.1449C19.6973 21.1591 19.8436 21.1732 19.9829 21.1873C22.6441 21.3566 25.2705 21.7235 27.7715 22.7394C29.1787 23.3109 30.4815 24.0588 31.4219 25.2934C31.6658 25.6109 31.8957 25.752 32.2788 25.6885C32.5505 25.6462 32.8083 25.6815 32.9964 25.9355C33.2959 26.3447 33.0591 26.895 32.5575 26.9796C32.23 27.0361 31.9166 27.1348 31.5891 27.1772C31.3662 27.2054 31.1293 27.1348 30.9134 27.1842C30.6208 27.2407 30.3352 27.3606 30.0565 27.4664C28.1964 28.179 26.3364 28.179 24.4833 27.4594C22.8044 26.8033 21.1533 26.8103 19.4744 27.5229C18.4782 27.9462 17.4123 28.0097 16.3325 27.9744C15.2736 27.9391 14.3401 27.4735 13.3439 27.2125C12.0411 26.8667 10.7384 26.8738 9.48442 27.3818C7.46414 28.1931 5.46475 28.2143 3.45143 27.3888C2.75478 27.0996 2.0233 27.0008 1.27092 26.9937C0.978326 26.9937 0.713599 26.8667 0.664833 26.5704C0.630001 26.3517 0.692699 26.0836 0.804163 25.8931C0.880795 25.7732 1.12462 25.7026 1.29182 25.6956C1.67498 25.6885 2.05813 25.745 2.43432 25.752C2.55275 25.752 2.73388 25.7238 2.78962 25.6391C3.65346 24.3621 4.88653 23.5649 6.245 22.944C8.33495 21.9916 10.5503 21.533 12.8144 21.3425C14.4515 21.2014 16.1026 21.1873 17.7537 21.1097C17.8791 21.1026 18.0602 21.0321 18.1159 20.9333C19.2724 18.9367 20.4079 16.9259 21.5504 14.9222C21.5713 14.8869 21.5783 14.8376 21.6131 14.7529C20.3243 14.1461 19.0285 13.6734 17.5865 14.0474C17.0849 14.1814 16.841 14.0968 16.6321 13.6311C15.4408 10.936 12.898 9.9906 10.5782 10.0753C10.2716 10.0894 9.99298 10.0682 9.81882 9.77895C9.65162 9.50379 9.72128 9.24275 9.86758 8.9817C11.5395 5.98323 13.727 3.51389 16.9107 2.1099C18.9101 1.22799 21.014 0.917561 23.1945 1.05867C24.9919 1.1786 26.7265 1.58075 28.4054 2.22984C28.4821 2.25806 28.5587 2.28628 28.6353 2.30744C28.6562 2.3145 28.6771 2.30744 28.7329 2.30744C29.0603 1.72891 29.4016 1.14333 29.736 0.557743C29.7987 0.444859 29.8614 0.331975 29.9381 0.233202C30.1401 -0.0207867 30.4815 -0.0701734 30.7532 0.0991524C31.0248 0.261423 31.1642 0.60713 31.0039 0.896395C30.5093 1.79947 30.0008 2.70254 29.4783 3.58444C29.3041 3.88076 28.9767 3.91604 28.6075 3.73966C27.1584 3.04824 25.6328 2.60376 24.0444 2.40622C19.4953 1.82769 15.7543 3.33045 12.8283 6.89335C12.3477 7.47188 11.9297 8.10685 11.435 8.7771C11.86 8.84766 12.1944 8.88293 12.5149 8.95348C14.6675 9.41207 16.3813 10.5056 17.4889 12.4741C17.5377 12.5658 17.684 12.6716 17.7676 12.6575C20.1292 12.4106 22.1008 13.3701 23.9469 14.6965C25.0406 15.4796 25.9323 16.4532 26.4688 17.7302C26.5036 17.8219 26.6499 17.9207 26.7404 17.9136C29.325 17.8995 31.2617 19.113 32.7734 21.1379C32.8152 21.1943 32.857 21.2437 32.9476 21.3566C33.2054 20.7922 33.4492 20.2842 33.6721 19.7551C34.3966 18.0265 34.7937 16.2133 34.745 14.3366C34.6962 12.3047 34.111 10.3998 33.08 8.65716C32.6829 7.98691 32.2161 7.35194 31.7563 6.71697C31.4289 6.25838 31.401 5.89856 31.7285 5.63752C32.0489 5.38353 32.4181 5.46819 32.7665 5.90562C36.1522 10.2375 36.9115 14.9857 34.8913 20.136C34.522 21.0744 34.0135 21.9492 33.5676 22.8523C33.4353 23.1204 33.2332 23.3039 32.9128 23.2968C32.5923 23.2827 32.4321 23.071 32.2927 22.8029C31.3383 21.025 29.9938 19.7339 27.9735 19.3317C27.4162 19.2189 26.824 19.24 26.2458 19.2541C25.7442 19.2682 25.5074 19.1342 25.3889 18.6474C25.368 18.5557 25.3471 18.464 25.3193 18.3722C25.0058 17.3563 23.7658 15.9452 22.7347 15.4584ZM3.99482 26.2036C4.41978 26.3305 4.77507 26.4717 5.14429 26.5493C6.46096 26.8103 7.7428 26.6621 8.99677 26.1612C10.6827 25.498 12.4243 25.4345 14.1032 26.0977C15.8588 26.7891 17.5586 26.8738 19.3142 26.1965C21.1324 25.491 22.9646 25.4698 24.7829 26.1894C25.8905 26.6269 27.0261 26.8103 28.1964 26.6128C28.9001 26.4928 29.5828 26.2388 30.3421 26.0272C29.6594 25.244 28.914 24.7502 28.1128 24.348C26.1413 23.3603 24.0165 22.9229 21.85 22.683C18.5757 22.3232 15.2945 22.3302 12.0202 22.7606C10.0557 23.0146 8.13292 23.452 6.3495 24.3621C5.47868 24.7925 4.67754 25.3358 3.99482 26.2036Z" fill="black"/>
<path d="M3.88336 12.8833C1.96757 12.982 0.0866136 11.3523 0.00301557 9.1722C-0.0805824 7.02035 1.58441 5.18598 3.69526 5.10838C5.83398 5.03077 7.58954 6.69581 7.69403 8.86177C7.79156 10.8866 6.1614 12.9326 3.88336 12.8833Z" fill="black"/>
</svg>
