<svg width="28" height="28" viewBox="0 0 28 28" fill="none" xmlns="http://www.w3.org/2000/svg">
<path d="M14 28H5.6C5.6 27.2574 5.895 26.5452 6.4201 26.0201C6.9452 25.495 7.65739 25.2 8.4 25.2V8.4H0V4.2H19.6V8.4H11.2V25.2C11.9426 25.2 12.6548 25.495 13.1799 26.0201C13.705 26.5452 14 27.2574 14 28ZM26.6 0C27.3732 0 28 0.626802 28 1.4V28H25.2V18.2H18.2V28H15.4V16.8C15.4 16.0574 15.695 15.3452 16.2201 14.8201C16.7452 14.295 17.4574 14 18.2 14H25.2V1.4C25.2 0.626802 25.8268 0 26.6 0Z" fill="#4A4A4A"/>
</svg>
