<svg width="43" height="24" viewBox="0 0 43 24" fill="none" xmlns="http://www.w3.org/2000/svg">
<path d="M36.0609 21.3329C35.8667 21.3329 35.735 21.3329 35.5963 21.3329C31.9005 21.3329 28.2048 21.3329 24.5021 21.3329C23.7879 21.3329 23.5799 21.1262 23.5799 20.4328C23.5799 16.8656 23.5799 13.2983 23.5799 9.73113C23.5799 9.61111 23.5799 9.49109 23.5799 9.35107C18.0258 9.35107 12.4995 9.35107 6.93847 9.35107C6.93847 9.49109 6.93847 9.62445 6.93847 9.75113C6.93847 14.2052 6.93847 18.6592 6.93847 23.1199C6.93847 23.7866 6.72351 24 6.03706 24C5.27433 24 4.5116 24 3.74887 24C2.9792 24 2.77812 23.8133 2.77812 23.0865C2.77812 16.8989 2.77812 10.7113 2.77812 4.51699C2.77812 4.36364 2.77812 4.20361 2.77812 4.02358C2.68104 4.01692 2.5909 3.99691 2.5077 3.99691C1.91831 3.99691 1.32893 4.00358 0.739549 3.99691C0.309647 3.99025 0.0184224 3.74354 0.0114885 3.35015C-0.00237934 2.45001 -0.00237934 1.54987 0.00455457 0.64973C0.0114885 0.263004 0.288845 0.0162988 0.691012 0.00296342C0.843558 -0.00370428 0.98917 0.00296342 1.14172 0.00296342C14.7322 0.00296342 28.3157 0.00296342 41.9062 0.00296342C42.0241 0.00296342 42.135 0.00296342 42.2529 0.00296342C42.7244 0.0162988 42.9879 0.256336 42.9948 0.703071C43.0017 1.56987 43.0017 2.43667 42.9948 3.30347C42.9879 3.74354 42.7174 3.99691 42.2459 3.99691C41.5872 4.00358 40.9285 3.99691 40.2212 3.99691C40.2212 4.1436 40.2212 4.27029 40.2212 4.39697C40.2212 10.6313 40.2212 16.8656 40.2212 23.0932C40.2212 23.8 40.0132 24 39.2713 23.9933C38.46 23.9933 37.6557 23.9933 36.8444 23.9933C36.3105 23.9933 36.0609 23.7533 36.0609 23.2332C36.054 22.6198 36.0609 21.9997 36.0609 21.3329ZM24.9874 4.01692C24.9874 9.35774 24.9874 14.6719 24.9874 19.986C28.6832 19.986 32.3512 19.986 36.0332 19.986C36.0332 14.6586 36.0332 9.34441 36.0332 4.01692C32.3512 4.01692 28.6832 4.01692 24.9874 4.01692ZM23.559 4.01692C18.0119 4.01692 12.4856 4.01692 6.9662 4.01692C6.9662 5.35045 6.9662 6.66399 6.9662 7.97086C12.5133 7.97086 18.0327 7.97086 23.559 7.97086C23.559 6.64399 23.559 5.33712 23.559 4.01692ZM5.52395 22.6598C5.52395 16.4255 5.52395 10.2245 5.52395 4.02358C5.05938 4.02358 4.61561 4.02358 4.19264 4.02358C4.19264 10.2512 4.19264 16.4522 4.19264 22.6598C4.64334 22.6598 5.07324 22.6598 5.52395 22.6598ZM37.4685 4.01692C37.4685 10.2445 37.4685 16.4455 37.4685 22.6398C37.933 22.6398 38.3768 22.6398 38.8137 22.6398C38.8137 16.4188 38.8137 10.2245 38.8137 4.01692C38.3629 4.01692 37.9261 4.01692 37.4685 4.01692Z" fill="black"/>
<path d="M30.5414 10.6645C31.637 10.6645 32.7326 10.6645 33.8281 10.6645C34.4314 10.6645 34.6671 10.8912 34.6671 11.4713C34.6671 13.605 34.6671 15.732 34.6671 17.8656C34.6671 18.4324 34.4244 18.6658 33.8212 18.6658C31.6162 18.6658 29.4112 18.6658 27.2062 18.6658C26.5891 18.6658 26.3464 18.4324 26.3464 17.8456C26.3464 15.7253 26.3464 13.605 26.3464 11.4846C26.3464 10.8979 26.5891 10.6712 27.2132 10.6645C28.3226 10.6645 29.432 10.6645 30.5414 10.6645Z" fill="black"/>
<path d="M30.5137 9.33098C29.4043 9.33098 28.2949 9.33098 27.1924 9.33098C26.596 9.33098 26.3534 9.09761 26.3534 8.52419C26.3534 7.7174 26.3534 6.90394 26.3534 6.09715C26.3534 5.5904 26.6099 5.33703 27.1369 5.33703C29.3904 5.33703 31.637 5.33703 33.8905 5.33703C34.4244 5.33703 34.674 5.57707 34.674 6.09048C34.681 6.9106 34.674 7.73073 34.674 8.55086C34.674 9.08427 34.4244 9.33098 33.8767 9.33098C32.7534 9.33764 31.6301 9.33098 30.5137 9.33098Z" fill="black"/>
</svg>
