<svg width="26" height="37" viewBox="0 0 26 37" fill="none" xmlns="http://www.w3.org/2000/svg">
<path d="M7.8 18.5H23.4C24.1177 18.5 24.7305 18.7547 25.2383 19.264C25.7461 19.7733 26 20.3996 26 21.1429C26 21.8862 25.7427 22.5125 25.2281 23.0218C24.7135 23.5311 24.1042 23.7857 23.4 23.7857H22.425L22.8312 36.3393C22.8448 36.5182 22.7872 36.6731 22.6586 36.8038C22.5299 36.9346 22.3776 37 22.2016 37H20.8C20.6375 37 20.4953 36.9346 20.3734 36.8038C20.2516 36.6731 20.1839 36.5182 20.1703 36.3393L19.8047 23.7857H9.1L7.02812 36.3599C6.96042 36.7866 6.75052 37 6.39844 37H4.89531C4.71927 37 4.56693 36.9346 4.43828 36.8038C4.30964 36.6731 4.25208 36.5251 4.26562 36.3599L6.19531 23.7857C6.14115 23.7582 5.84323 23.7203 5.30156 23.6722C4.7599 23.624 4.30964 23.4416 3.95078 23.125C3.59193 22.8084 3.30417 22.2578 3.0875 21.4732C2.87083 20.6611 2.69141 19.6287 2.54922 18.3761C2.40703 17.1235 2.27161 15.5991 2.14297 13.8027C2.01432 12.0064 1.92292 10.8261 1.86875 10.2617C1.80104 9.49089 1.47266 8.27613 0.883594 6.61747C0.294531 4.9588 0 3.63393 0 2.64286C0 2.00967 0.213281 1.4109 0.639844 0.84654C1.06641 0.28218 1.71979 0 2.6 0C3.39896 0 3.99479 0.258092 4.3875 0.774275C4.78021 1.29046 5.13906 2.09226 5.46406 3.17969C6.69635 7.28162 7.475 12.3884 7.8 18.5Z" fill="#4A4A4A"/>
</svg>
