<svg width="26" height="26" viewBox="0 0 26 26" fill="none" xmlns="http://www.w3.org/2000/svg">
<path d="M17.6375 3C18.675 3 19.6625 3.275 20.5 3.825C21.925 4.75 22.8 6.1625 23 7.8C23.0715 8.59318 22.9687 9.3924 22.6988 10.1417C22.4289 10.8909 21.9984 11.5721 21.4375 12.1375C20.5625 13 19.45 13.55 18.225 13.675C15.8375 13.925 13.7375 14.875 12.175 16.4625C11.9862 16.6468 11.7327 16.75 11.4688 16.75C11.2049 16.75 10.9514 16.6468 10.7625 16.4625L9.52504 15.225C9.43757 15.1383 9.36821 15.0351 9.321 14.9214C9.27379 14.8076 9.24967 14.6856 9.25004 14.5625C9.25004 14.25 9.38754 13.975 9.65004 13.7125C11.1625 12.1875 12.0875 10.1625 12.3125 7.8375C12.475 6.175 13.3625 4.75 14.8125 3.8125C15.6375 3.275 16.6125 3 17.6375 3ZM17.6375 0.5C16.175 0.5 14.7125 0.9 13.45 1.7125C11.25 3.125 10.0375 5.325 9.82504 7.6C9.66254 9.25 9.03754 10.7875 7.88754 11.9375L7.85004 11.975C6.40004 13.425 6.40004 15.6375 7.76254 16.9875L9.00004 18.225C9.68754 18.9125 10.575 19.25 11.4625 19.25C12.35 19.25 13.25 18.9125 13.9375 18.225C15.15 17.0125 16.75 16.35 18.4875 16.1625C20.2 15.975 21.875 15.225 23.2 13.9125C24.0313 13.0824 24.6654 12.0759 25.0552 10.9677C25.4451 9.85949 25.5809 8.67778 25.4524 7.51001C25.324 6.34224 24.9347 5.21828 24.3133 4.22126C23.6919 3.22423 22.8544 2.37966 21.8625 1.75C20.6 0.9125 19.125 0.5 17.6375 0.5ZM5.82504 22.825C6.16254 23.525 6.05004 24.375 5.46254 24.95C5.2081 25.2083 4.8838 25.3867 4.52943 25.4633C4.17506 25.54 3.80602 25.5115 3.46759 25.3814C3.12916 25.2514 2.83605 25.0254 2.62421 24.7311C2.41237 24.4369 2.29102 24.0872 2.27504 23.725C1.91283 23.709 1.56316 23.5877 1.26892 23.3758C0.974676 23.164 0.748661 22.8709 0.618598 22.5325C0.488534 22.194 0.460076 21.825 0.536715 21.4706C0.613354 21.1162 0.791757 20.7919 1.05004 20.5375C1.62504 19.9625 2.48754 19.8375 3.17504 20.175L6.27504 17.1375C6.45004 17.375 6.65004 17.65 6.87504 17.875L8.11254 19.1125C8.37504 19.3625 8.62504 19.575 8.95004 19.7625L5.82504 22.825Z" fill="#4A4A4A"/>
</svg>
