<svg width="28" height="25" viewBox="0 0 28 25" fill="none" xmlns="http://www.w3.org/2000/svg">
<path d="M25.0702 20.451C25.0702 21.0729 25.0702 21.6382 25.0702 22.1964C25.0702 22.903 25.0774 23.6097 25.0702 24.3163C25.0629 24.7615 24.8526 24.9947 24.4175 24.9947C22.9091 25.0018 21.3934 25.0018 19.885 24.9947C19.4354 24.9947 19.2323 24.7615 19.2323 24.281C19.2251 23.1504 19.2323 22.0198 19.2323 20.8891C19.2323 20.7619 19.2323 20.6347 19.2323 20.4722C18.4491 20.4722 17.7022 20.4722 16.9044 20.4722C16.9044 20.6065 16.9044 20.7337 16.9044 20.8609C16.9044 22.0056 16.9044 23.1433 16.9044 24.2881C16.9044 24.7968 16.7014 24.9947 16.1792 24.9947C14.7143 24.9947 13.2567 24.9947 11.7918 24.9947C11.2914 24.9947 11.0883 24.7898 11.0883 24.3022C11.0883 23.1574 11.0883 22.0198 11.0883 20.875C11.0883 20.7478 11.0883 20.6206 11.0883 20.4722C10.3051 20.4722 9.5654 20.4722 8.77493 20.4722C8.76768 20.5923 8.76042 20.7125 8.76042 20.8397C8.76042 21.9703 8.76042 23.1009 8.76042 24.2315C8.76042 24.8039 8.56462 24.9947 7.97721 24.9947C6.54856 24.9947 5.12717 24.9947 3.69852 24.9947C3.11836 24.9947 2.92256 24.8039 2.92256 24.2245C2.92256 23.108 2.92256 21.9844 2.92256 20.8679C2.92256 20.7407 2.92256 20.6135 2.92256 20.4439C2.21911 20.4439 1.55918 20.4439 0.899249 20.4439C0.14504 20.451 0 20.3097 0 19.5818C0 18.5926 0 17.6033 0 16.614C0 16.1122 0.210308 15.9073 0.725201 15.9003C1.4359 15.8932 2.14659 15.9003 2.8863 15.9003C2.8863 14.7626 2.8863 13.6531 2.8863 12.4943C2.19736 12.4943 1.50842 12.4943 0.826729 12.4943C0.1813 12.4943 0 12.3247 0 11.7028C0 10.6923 0 9.67477 0 8.66428C0 8.14843 0.195804 7.95764 0.717949 7.95057C1.42865 7.94351 2.13934 7.95057 2.89355 7.95057C2.9008 7.80218 2.91531 7.67498 2.91531 7.55486C2.91531 6.42423 2.90805 5.29361 2.92256 4.16299C2.92981 3.94393 3.00233 3.69661 3.12561 3.50582C3.82181 2.47412 4.53976 1.44243 5.25045 0.403672C5.62031 -0.133374 6.04817 -0.133374 6.41077 0.396605C7.12147 1.43536 7.83942 2.46706 8.53561 3.51288C8.66615 3.71074 8.73867 3.96513 8.74592 4.19832C8.76768 5.30774 8.75317 6.4101 8.75317 7.51952C8.75317 7.64672 8.75317 7.77391 8.75317 7.93644C9.53639 7.93644 10.2833 7.93644 11.0883 7.93644C11.0883 7.80925 11.0883 7.68205 11.0883 7.55486C11.0883 6.4101 11.0811 5.27241 11.0956 4.12766C11.0956 3.9298 11.1681 3.70367 11.2769 3.54115C11.9803 2.48119 12.7055 1.44243 13.4235 0.396605C13.7861 -0.133374 14.2139 -0.126307 14.5838 0.410738C15.2872 1.43536 15.9979 2.45999 16.6869 3.49875C16.8174 3.68954 16.8972 3.951 16.9044 4.18419C16.9262 5.30068 16.9117 6.42423 16.9117 7.54072C16.9117 7.66792 16.9117 7.79511 16.9117 7.94351C17.6949 7.94351 18.4491 7.94351 19.2396 7.94351C19.2396 7.79511 19.2396 7.66792 19.2396 7.54072C19.2396 6.42423 19.2323 5.30068 19.2468 4.18419C19.2541 3.96513 19.3266 3.71781 19.4499 3.52701C20.1533 2.46706 20.8713 1.4283 21.5965 0.382473C21.9446 -0.126307 22.3797 -0.126307 22.735 0.389539C23.453 1.43536 24.1782 2.48119 24.8816 3.53408C25.0049 3.71781 25.0702 3.9722 25.0774 4.19126C25.0992 5.30774 25.0847 6.4313 25.0847 7.54779C25.0847 7.67498 25.0847 7.80218 25.0847 7.96471C25.8171 7.96471 26.4988 7.96471 27.1878 7.96471C27.826 7.96471 28 8.1343 28 8.76321C28 9.7525 28 10.7418 28 11.7311C28 12.3247 27.8114 12.5013 27.195 12.5013C26.5061 12.5013 25.8244 12.5013 25.1137 12.5013C25.1137 13.639 25.1137 14.7555 25.1137 15.9073C25.8099 15.9073 26.4988 15.9073 27.1805 15.9073C27.8187 15.9073 28 16.084 28 16.7058C28 17.7163 28 18.7339 28 19.7444C28 20.2532 27.7969 20.451 27.2748 20.451C26.5496 20.4581 25.8389 20.451 25.0702 20.451ZM7.5711 23.857C7.57835 23.7157 7.59285 23.6097 7.59285 23.5037C7.59285 17.151 7.59285 10.7913 7.59285 4.43858C7.59285 4.31138 7.5856 4.16299 7.52033 4.06406C6.97643 3.24436 6.41803 2.43879 5.83787 1.59789C5.29396 2.38933 4.76457 3.1525 4.25693 3.92273C4.1554 4.07819 4.09013 4.29018 4.09013 4.47391C4.08288 10.8054 4.08288 17.1369 4.08288 23.4684C4.08288 23.5956 4.09738 23.7157 4.09738 23.8499C5.26496 23.857 6.39627 23.857 7.5711 23.857ZM20.3999 23.8429C21.5965 23.8429 22.735 23.8429 23.8954 23.8429C23.9026 23.7157 23.9099 23.6097 23.9099 23.5037C23.9099 17.151 23.9099 10.7913 23.9099 4.43858C23.9099 4.31138 23.9026 4.16299 23.8373 4.06406C23.2934 3.24436 22.735 2.43879 22.1549 1.59789C21.6255 2.36813 21.1033 3.10303 20.6175 3.85913C20.4942 4.05699 20.4071 4.31138 20.4071 4.53751C20.3926 10.8195 20.3999 17.1086 20.3999 23.3906C20.3999 23.539 20.3999 23.6733 20.3999 23.8429ZM12.2486 23.8499C13.4307 23.8499 14.5693 23.8499 15.7369 23.8499C15.7369 23.6804 15.7369 23.5249 15.7369 23.3765C15.7369 17.1934 15.7296 11.0174 15.7441 4.8343C15.7441 4.35378 15.6353 3.951 15.3452 3.56235C14.8811 2.9405 14.4605 2.28333 13.9891 1.59789C13.4525 2.38226 12.9376 3.11716 12.4444 3.8662C12.3284 4.04286 12.2559 4.27605 12.2559 4.48098C12.2486 10.8054 12.2486 17.1227 12.2486 23.4472C12.2486 23.5814 12.2486 23.7015 12.2486 23.8499ZM8.77493 12.5155C8.77493 13.6531 8.77493 14.7626 8.77493 15.8791C9.55089 15.8791 10.3051 15.8791 11.0593 15.8791C11.0593 14.7484 11.0593 13.639 11.0593 12.5155C10.2978 12.5155 9.55089 12.5155 8.77493 12.5155ZM16.9117 15.8791C17.6949 15.8791 18.4491 15.8791 19.2033 15.8791C19.2033 14.7414 19.2033 13.6319 19.2033 12.5296C18.4201 12.5296 17.6731 12.5296 16.9117 12.5296C16.9117 13.6531 16.9117 14.7484 16.9117 15.8791Z" fill="black"/>
<path d="M6.41077 18.1898C6.40352 18.5007 6.1497 18.748 5.83061 18.7409C5.51153 18.7409 5.25045 18.4936 5.2432 18.1898C5.23595 17.8718 5.52603 17.5962 5.84512 17.6103C6.16421 17.6245 6.41803 17.8859 6.41077 18.1898Z" fill="black"/>
<path d="M5.83787 10.8054C5.52603 10.8125 5.25771 10.551 5.2432 10.2471C5.23595 9.93623 5.48252 9.68184 5.80161 9.6677C6.14245 9.65357 6.41077 9.9009 6.40352 10.233C6.41077 10.5439 6.1497 10.7983 5.83787 10.8054Z" fill="black"/>
<path d="M22.1404 9.6677C22.4667 9.66064 22.7205 9.89383 22.735 10.2048C22.7495 10.5227 22.474 10.7983 22.1476 10.7983C21.8358 10.7983 21.5747 10.5369 21.5675 10.233C21.5675 9.9221 21.8213 9.67477 22.1404 9.6677Z" fill="black"/>
<path d="M22.1549 18.748C21.8285 18.748 21.5747 18.5078 21.5747 18.1968C21.5675 17.8788 21.8503 17.6033 22.1766 17.6174C22.4885 17.6315 22.7495 17.893 22.7423 18.1968C22.735 18.5007 22.4812 18.748 22.1549 18.748Z" fill="black"/>
<path d="M13.9891 10.8054C13.6628 10.7983 13.4017 10.5298 13.4162 10.2118C13.4307 9.9009 13.6773 9.6677 14.0036 9.67477C14.3372 9.67477 14.591 9.93623 14.5765 10.2613C14.562 10.5581 14.2937 10.8054 13.9891 10.8054Z" fill="black"/>
<path d="M14.0036 18.748C13.6773 18.7551 13.4235 18.5148 13.4162 18.2039C13.409 17.8788 13.6773 17.6103 14.0036 17.6103C14.3155 17.6174 14.5765 17.8788 14.5765 18.1827C14.5765 18.4936 14.3227 18.7409 14.0036 18.748Z" fill="black"/>
</svg>
