<svg width="25" height="32" viewBox="0 0 25 32" fill="none" xmlns="http://www.w3.org/2000/svg">
<path d="M19.9165 31.8332C22.5448 31.8332 24.6665 29.7115 24.6665 27.0832C24.6665 24.4548 22.5448 22.3332 19.9165 22.3332C17.8582 22.3332 16.1165 23.6632 15.4515 25.4998H7.4715L10.6223 20.6548C11.5363 20.7811 12.4633 20.7811 13.3773 20.6548L14.9923 23.1407C15.6573 22.3015 16.5123 21.6365 17.5257 21.2248L16.5757 19.7523C18.5153 18.8749 20.1608 17.4567 21.3149 15.6679C22.4691 13.8791 23.083 11.7954 23.0832 9.6665H0.916504C0.916504 14.1632 3.59234 18.0107 7.43984 19.7523L1.18567 29.379C0.95802 29.73 0.87853 30.1568 0.964564 30.5662C1.0506 30.9756 1.29517 31.3343 1.64484 31.564C1.99582 31.7917 2.42264 31.8711 2.83205 31.7851C3.24145 31.6991 3.60017 31.4545 3.82984 31.1048L5.41317 28.6507H15.4515C16.1165 30.5032 17.8582 31.8332 19.9165 31.8332ZM19.9165 25.4998C20.7873 25.4998 21.4998 26.2123 21.4998 27.0832C21.4998 27.954 20.7873 28.6665 19.9165 28.6665C19.0457 28.6665 18.3332 27.954 18.3332 27.0832C18.3332 26.2123 19.0457 25.4998 19.9165 25.4998ZM4.74817 12.8332H19.2515C18.0323 15.6198 15.2298 17.5832 11.9998 17.5832C8.76984 17.5832 5.96734 15.6198 4.74817 12.8332ZM7.899 8.08317H9.48234C9.71984 6.26234 9.84651 5.4865 8.07317 3.3965C7.40817 2.60484 6.9965 2.17734 7.34484 0.166504H5.77734C5.44484 1.924 5.82484 3.41234 7.1865 4.85317C7.53484 5.23317 8.43734 5.914 7.899 8.08317ZM11.8257 8.08317H13.409C13.6465 6.26234 13.7732 5.4865 11.9998 3.3965C11.3348 2.60484 10.9232 2.1615 11.2715 0.166504H9.704C9.3715 1.924 9.7515 3.41234 11.1132 4.85317C11.4773 5.23317 12.3798 5.914 11.8257 8.08317ZM15.8157 8.08317H17.399C17.6365 6.26234 17.7632 5.4865 15.9898 3.3965C15.3248 2.60484 14.9132 2.17734 15.2615 0.166504H13.694C13.3615 1.924 13.7415 3.41234 15.1032 4.85317C15.4515 5.23317 16.354 5.914 15.8157 8.08317Z" fill="#4A4A4A"/>
</svg>
