<svg width="24" height="26" viewBox="0 0 24 26" fill="none" xmlns="http://www.w3.org/2000/svg">
<path d="M23.959 6.37074C23.9138 5.92615 23.6386 5.53617 23.2304 5.33728L12.5943 0.13747C12.2207 -0.0458233 11.7793 -0.0458233 11.4044 0.13747L0.768225 5.33728C0.361392 5.53747 0.0861815 5.92745 0.0409779 6.37074C0.0263532 6.50983 -1.23669 20.3673 11.4602 25.8882C11.6317 25.9636 11.8152 26 12 26C12.1848 26 12.3683 25.9636 12.5398 25.8882C25.2367 20.3673 23.9736 6.51113 23.959 6.37074ZM12 23.2662V13.0005H3.37142C2.68273 10.5436 2.61891 8.39216 2.64816 7.3262L12 2.75427V13.0005H20.5887C19.5796 16.5624 17.2676 20.7729 12 23.2662Z" fill="black"/>
</svg>
