<svg width="30" height="28" viewBox="0 0 30 28" fill="none" xmlns="http://www.w3.org/2000/svg">
<path d="M28.5 10.3158H7.5V5.89474C7.5 4.26926 8.8455 2.94737 10.5 2.94737C12.1545 2.94737 13.5 4.26926 13.5 5.89474H16.5C16.5 2.64379 13.809 0 10.5 0C7.191 0 4.5 2.64379 4.5 5.89474V10.3158H1.5C0.6705 10.3158 0 10.9745 0 11.7895V14.7368C0 18.5773 2.511 21.8444 6 23.0632V28H9V23.5789H21V28H24V23.0632C27.489 21.8444 30 18.5773 30 14.7368V11.7895C30 10.9745 29.3295 10.3158 28.5 10.3158ZM27 14.7368C27 17.9878 24.309 20.6316 21 20.6316H9C5.691 20.6316 3 17.9878 3 14.7368V13.2632H27V14.7368Z" fill="#1E1E1E"/>
</svg>
