<svg xmlns="http://www.w3.org/2000/svg" xmlns:xlink="http://www.w3.org/1999/xlink" version="1.1" id="Layer_1" x="0px" y="0px" viewBox="0 0 512 512" style="enable-background:new 0 0 512 512;" xml:space="preserve" width="512" height="512">
<g>
	<path d="M492,186h-20v-80c0-16.542-13.458-30-30-30h-70c-16.542,0-30,13.458-30,30v80h-20v-80c0-16.542-13.458-30-30-30h-72   c-16.542,0-30,13.458-30,30v80h-20v-80c0-16.542-13.458-30-30-30H70c-16.542,0-30,13.458-30,30v80H20c-11.028,0-20,8.972-20,20v130   c0,5.523,4.477,10,10,10h85v70H50c-5.51,0-10,4.49-10,10c0,5.51,4.49,10,10,10h84c5.51,0,10-4.49,10-10c0-5.51-4.49-10-10-10h-19   v-70h131v70h-32c-5.51,0-10,4.49-10,10c0,5.51,4.49,10,10,10h84c5.51,0,10-4.49,10-10c0-5.51-4.49-10-10-10h-32v-70h131v70h-19   c-5.521,0-10,4.49-10,10c0,5.51,4.479,10,10,10h84c5.51,0,10-4.49,10-10c0-5.51-4.49-10-10-10h-45v-70h85c5.522,0,10-4.477,10-10   V206C512,194.972,503.028,186,492,186z M492,206v80h-20v-80H492z M362,286v-20h90v20H362z M362,106c0-5.514,4.486-10,10-10h70   c5.514,0,10,4.486,10,10v140h-90V106z M342,206v80h-20v-80H342z M210,286v-20h92v20H210z M210,106c0-5.514,4.486-10,10-10h72   c5.514,0,10,4.486,10,10v140h-92V106z M190,206v80h-20v-80H190z M60,286v-20h90v20H60z M60,106c0-5.514,4.486-10,10-10h70   c5.514,0,10,4.486,10,10v140H60V106z M20,206h20v80H20V206z M492,326H20v-20h472V326z"/>
	<path d="M90,136h30c5.523,0,10-4.477,10-10s-4.477-10-10-10H90c-5.523,0-10,4.477-10,10S84.477,136,90,136z"/>
	<path d="M392,136h30c5.522,0,10-4.477,10-10s-4.478-10-10-10h-30c-5.522,0-10,4.477-10,10S386.478,136,392,136z"/>
	<path d="M240,136h32c5.522,0,10-4.477,10-10s-4.478-10-10-10h-32c-5.523,0-10,4.477-10,10S234.477,136,240,136z"/>
	<path d="M10,416c-5.51,0-10,4.49-10,10c0,5.51,4.49,10,10,10c5.51,0,10-4.49,10-10C20,420.49,15.51,416,10,416z"/>
	<path d="M174,416c-5.51,0-10,4.49-10,10c0,5.51,4.49,10,10,10c5.51,0,10-4.49,10-10C184,420.49,179.51,416,174,416z"/>
	<path d="M502,416c-5.521,0-10,4.49-10,10c0,5.51,4.479,10,10,10c5.51,0,10-4.49,10-10C512,420.49,507.51,416,502,416z"/>
	<path d="M338,416c-5.51,0-10,4.49-10,10c0,5.51,4.49,10,10,10s10-4.49,10-10C348,420.49,343.51,416,338,416z"/>
</g>
</svg>