<svg width="26" height="24" viewBox="0 0 26 24" fill="none" xmlns="http://www.w3.org/2000/svg">
<path d="M13.4584 13.8219C13.6766 13.2723 13.8886 12.7228 14.1068 12.1821C14.1989 11.9576 14.3157 11.7449 14.4048 11.5203C14.4447 11.4169 14.4724 11.2928 14.4601 11.1835C14.3034 9.56744 14.4878 7.99566 15.1637 6.5007C16.0333 4.5862 17.545 3.36896 19.5944 2.74853C20.977 2.32899 22.3965 2.24331 23.8314 2.31127C24.3015 2.3349 24.7716 2.37922 25.2387 2.42944C25.5889 2.4649 25.8409 2.70421 25.8901 3.0617C26.1328 4.85802 26.0007 6.61297 25.2202 8.28224C24.3507 10.1524 22.8421 11.3106 20.8019 11.8483C19.6036 12.1644 18.3807 12.2265 17.1486 12.1585C16.7461 12.1349 16.3436 12.0935 15.9411 12.0521C15.8581 12.0433 15.8151 12.0581 15.7752 12.1349C14.8841 13.9903 14.3403 15.9314 14.1774 17.9699C14.1774 17.9788 14.1805 17.9906 14.1866 18.0113C14.3679 18.0408 14.5523 18.0645 14.7366 18.0999C15.3696 18.227 15.9564 18.4663 16.4941 18.809C16.5894 18.871 16.6785 18.8888 16.7922 18.8681C17.5204 18.7381 18.2301 18.7765 18.8907 19.1399C19.2564 19.3408 19.5483 19.6215 19.7818 19.9583C19.8279 20.0233 19.9078 20.0883 19.9877 20.109C21.3826 20.5019 22.2245 21.4946 22.3351 22.8921C22.3412 22.9807 22.3474 23.0693 22.3535 23.158C22.3904 23.6573 22.0678 23.9941 21.5516 23.9941C20.5745 23.9941 19.5944 23.9941 18.6173 23.9941C14.1559 23.9941 9.69762 23.9882 5.23625 24C4.68011 24 4.32677 23.6218 4.37593 23.1107C4.43431 22.4666 4.57564 21.858 4.9505 21.3114C5.38373 20.6821 6.00439 20.3099 6.75102 20.109C6.82169 20.0912 6.89851 20.041 6.93845 19.9819C7.54067 19.1015 8.40407 18.7499 9.47332 18.809C9.55628 18.8149 9.64231 18.806 9.71605 18.8326C9.99566 18.9331 10.2169 18.8297 10.4535 18.6879C11.0987 18.3038 11.8054 18.0881 12.5858 18.0172C12.5674 17.7631 12.5551 17.5149 12.5305 17.2668C12.3185 15.1366 11.7777 13.0833 10.9389 11.1008C10.8806 10.959 10.8099 10.8231 10.7577 10.6783C10.7177 10.5749 10.6593 10.5572 10.5487 10.569C8.91411 10.7226 7.28565 10.7138 5.68177 10.3179C4.28375 9.9722 3.04858 9.34881 2.05614 8.32361C1.1528 7.38999 0.593593 6.27911 0.289409 5.0471C-0.0608639 3.61419 -0.0823719 2.17536 0.166506 0.730627C0.23103 0.343592 0.479908 0.122007 0.88856 0.0865529C2.643 -0.0670793 4.38822 -0.0434436 6.10578 0.382C7.51917 0.730627 8.78814 1.34516 9.82974 2.34377C10.9328 3.40146 11.5719 4.69847 11.8945 6.14912C12.1587 7.34568 12.2048 8.54814 12.0358 9.76243C12.0297 9.81266 12.0389 9.87175 12.0604 9.91606C12.6319 11.1569 13.0867 12.4333 13.4308 13.748C13.4369 13.7775 13.4492 13.8012 13.4584 13.8219ZM10.011 9.16858C9.82359 8.85541 9.66996 8.58655 9.50405 8.32065C8.7359 7.08568 7.851 5.93935 6.73259 4.97029C6.50214 4.76938 6.29014 4.53302 6.02282 4.39416C5.71249 4.23462 5.65412 3.98349 5.64797 3.71464C5.64183 3.44578 5.80774 3.24192 6.06277 3.12079C6.32394 2.9967 6.58818 3.02329 6.81862 3.18579C7.11359 3.3926 7.40548 3.60828 7.68201 3.84168C8.7697 4.76347 9.6546 5.85072 10.4381 7.01773C10.4658 7.05909 10.4934 7.0975 10.5426 7.16545C10.5426 7.10636 10.5456 7.09159 10.5426 7.07977C10.5118 6.91137 10.4873 6.74001 10.4535 6.57161C9.95571 4.22281 8.56077 2.64512 6.17031 1.91537C4.84603 1.51061 3.48181 1.42197 2.10223 1.46924C1.93016 1.47515 1.75502 1.48402 1.58296 1.49288C1.57374 1.52538 1.5676 1.5431 1.56453 1.56083C1.4447 2.73375 1.50615 3.8919 1.84413 5.02937C2.38183 6.82864 3.54941 8.06952 5.38987 8.71064C6.44684 9.07995 7.54682 9.20404 8.66523 9.20404C9.10154 9.20108 9.53477 9.1804 10.011 9.16858ZM16.0179 8.82586C16.4081 8.39156 16.7584 7.9543 17.1578 7.56431C17.5511 7.18023 17.9843 6.8316 18.4268 6.49774C18.7586 6.24661 19.2164 6.33525 19.4622 6.65433C19.7111 6.97932 19.6405 7.40772 19.2994 7.6618C19.2072 7.72976 19.115 7.80362 19.0259 7.87453C18.0427 8.63382 17.293 9.58221 16.6324 10.6015C16.6232 10.6163 16.6232 10.637 16.617 10.6635C16.7123 10.6724 16.7983 10.6813 16.8813 10.6872C18.0089 10.7758 19.1304 10.7522 20.2365 10.4892C21.9602 10.0815 23.2231 9.13608 23.9205 7.54067C24.2923 6.68978 24.4521 5.79754 24.4859 4.88165C24.4982 4.53007 24.489 4.17553 24.489 3.80623C24.0619 3.78554 23.6747 3.76191 23.2876 3.75305C22.0186 3.7235 20.7712 3.84168 19.579 4.29667C17.4436 5.10619 16.3897 6.71047 16.0179 8.82586ZM5.99824 22.5346C10.9205 22.5346 15.8274 22.5346 20.7435 22.5346C20.6605 22.2835 20.5407 22.0707 20.3502 21.8964C20.0768 21.6453 19.7388 21.5182 19.3731 21.4739C18.9952 21.4267 18.7525 21.2464 18.605 20.9067C18.4606 20.5728 18.1933 20.3631 17.8184 20.2862C17.4835 20.2183 17.1517 20.2478 16.8321 20.3453C16.4696 20.4576 16.1807 20.3719 15.8735 20.1681C15.5355 19.9406 15.1637 19.7338 14.7766 19.6008C14.2788 19.4324 13.7442 19.4501 13.2157 19.4413C12.2909 19.4294 11.4736 19.6924 10.7515 20.236C10.5334 20.3985 10.2968 20.4458 10.0295 20.3749C9.88197 20.3365 9.73142 20.2981 9.58086 20.2774C8.89875 20.1799 8.35491 20.3453 8.06608 21.0337C7.96469 21.276 7.75575 21.403 7.49151 21.4473C7.3471 21.4739 7.19962 21.4976 7.05828 21.536C6.5298 21.6896 6.16723 22.0057 5.99824 22.5346ZM15.0777 19.4206C15.0777 19.4206 15.0992 19.4413 15.1268 19.4708C15.1576 19.3733 15.216 19.2817 15.1207 19.2049C15.1053 19.2699 15.0931 19.3349 15.0777 19.4206Z" fill="black"/>
</svg>
