<svg width="37" height="27" viewBox="0 0 37 27" fill="none" xmlns="http://www.w3.org/2000/svg">
<path d="M18.0152 25.4047C21.9886 25.3748 25.3933 24.9266 28.6668 23.6792C30.3947 23.0219 32.0351 22.1704 33.3839 20.8633C33.8505 20.4151 34.2733 19.9072 34.6233 19.3544C35.7533 17.5842 35.6804 15.5898 34.4775 13.8719C33.6245 12.6543 32.4653 11.8028 31.2113 11.0559C31.0144 10.9364 30.803 10.8393 30.6061 10.7123C30.2416 10.4733 30.1322 10.04 30.3218 9.66655C30.5114 9.30055 30.9561 9.10635 31.3206 9.30055C33.5151 10.4733 35.4325 11.9746 36.4824 14.3648C37.2844 16.1799 37.1313 17.9726 36.1835 19.698C35.5419 20.8707 34.6379 21.8044 33.6026 22.6111C31.3644 24.344 28.8126 25.3748 26.1151 26.062C22.3167 27.0256 18.4599 27.2272 14.574 26.7567C11.3807 26.3682 8.30405 25.5391 5.45341 23.978C4.03902 23.2087 2.74129 22.2526 1.67685 20.9902C-0.554085 18.3311 -0.561375 15.1566 1.66956 12.49C2.87981 11.0484 4.38168 10.0176 6.02937 9.18104C8.51548 7.92617 11.1474 7.16429 13.8814 6.80576C15.3978 6.61155 16.9289 6.53685 18.4526 6.43975C18.9484 6.40987 19.4442 6.46963 19.9472 6.49951C20.4138 6.52939 20.7273 6.87298 20.72 7.32115C20.7054 7.76931 20.3774 8.08303 19.9035 8.0905C18.6641 8.11291 17.4246 8.07556 16.1852 8.15773C12.5764 8.39675 9.09144 9.13622 5.87626 10.9289C4.7608 11.5489 3.7474 12.3182 2.90897 13.3116C1.08631 15.5002 1.10818 18.0846 2.97459 20.2358C4.32336 21.7895 6.05124 22.768 7.90306 23.5224C10.309 24.5084 12.8243 25.0312 15.4051 25.2478C16.4477 25.3375 17.483 25.3748 18.0152 25.4047Z" fill="black"/>
<path d="M23.1915 13.3714C23.1843 13.4461 23.177 13.4909 23.1697 13.5357C23.1186 14.0511 22.7979 14.3648 22.3531 14.3499C21.923 14.335 21.6168 13.9988 21.6168 13.4984C21.6095 12.49 21.6168 11.4816 21.6168 10.4733C21.6168 8.30711 21.6022 6.14097 21.6241 3.9823C21.6386 1.79375 23.4978 -0.0512013 25.6266 0.00108482C26.7056 0.0309626 27.6243 0.486599 28.3679 1.28583C28.7324 1.67424 28.7251 2.15229 28.3898 2.48094C28.0544 2.80213 27.5805 2.77972 27.2306 2.38384C26.589 1.6593 25.8016 1.48751 24.9049 1.66677C23.9133 1.86845 23.2207 2.7125 23.1843 3.79557C23.1551 4.71431 23.1697 5.64052 23.1843 6.55926C23.1843 6.65637 23.2572 6.80576 23.3374 6.8431C24.8028 7.59752 26.2682 8.34446 27.7336 9.08394C27.7482 9.09141 27.7774 9.08394 27.8357 9.08394C27.8357 8.46397 27.8357 7.85148 27.8357 7.23151C27.8357 5.1326 29.5927 3.2503 31.6122 3.19801C33.6536 3.14572 35.5273 4.93092 35.6294 7.02984C35.6513 7.56764 35.3378 7.96352 34.8712 7.98593C34.4264 8.00087 34.0619 7.6498 34.0619 7.11947C34.04 5.37909 32.5819 4.48276 31.0217 4.88611C30.0229 5.14754 29.4178 6.01399 29.4105 7.22404C29.4032 8.29218 29.4323 9.36031 29.4323 10.4359C29.4323 11.7953 29.4105 13.1473 29.4032 14.5068C29.3959 15.2164 29.4032 15.926 29.4032 16.6281C29.4032 17.1883 29.0824 17.5543 28.6158 17.5543C28.1492 17.5468 27.7847 17.1734 27.8576 16.6206C27.9523 15.8961 27.6534 15.5824 27.041 15.306C25.8672 14.7757 24.7299 14.1482 23.578 13.5581C23.4467 13.4834 23.3228 13.4312 23.1915 13.3714ZM27.8211 13.9167C27.8211 12.9905 27.8065 12.124 27.8284 11.265C27.8357 11.0185 27.7555 10.8915 27.5368 10.787C26.1953 10.1147 24.8611 9.42753 23.5269 8.75528C23.4249 8.703 23.3082 8.65818 23.1624 8.59095C23.1624 9.5097 23.1697 10.3911 23.1551 11.265C23.1551 11.4816 23.228 11.5937 23.4176 11.6833C24.6351 12.2958 25.8526 12.9158 27.0702 13.5357C27.3035 13.6552 27.5441 13.7748 27.8211 13.9167Z" fill="black"/>
<path d="M17.9787 22.26C21.3397 22.2152 24.1248 21.909 26.8077 20.9081C27.9523 20.4823 29.0459 19.9371 29.9646 19.093C30.5916 18.5179 31.0946 17.8456 31.1675 16.9418C31.2331 16.0679 30.8978 15.3359 30.2708 14.7458C30.0083 14.4993 29.9208 14.208 30.0229 13.8644C30.1177 13.5507 30.3437 13.3341 30.6572 13.3341C30.8832 13.3341 31.1602 13.4088 31.3133 13.5581C32.4725 14.6561 33.4859 16.8746 32.0059 18.9884C31.4081 19.8399 30.6426 20.5047 29.775 21.05C27.7847 22.3123 25.5829 23.007 23.3009 23.4103C18.9338 24.1722 14.6177 23.978 10.3819 22.5588C8.77794 22.021 7.26878 21.289 5.98562 20.1387C5.067 19.3171 4.3671 18.3535 4.24316 17.0538C4.15567 16.1052 4.44001 15.2612 4.95035 14.4844C5.57735 13.5357 6.42306 12.8411 7.36356 12.251C8.39154 11.6011 9.49972 11.1231 10.6516 10.7571C11.1474 10.6002 11.5703 10.8019 11.7088 11.2501C11.8473 11.6982 11.614 12.0867 11.1255 12.2883C10.1194 12.7066 9.08415 13.095 8.12907 13.6179C7.50937 13.954 6.9407 14.4545 6.4741 14.9923C5.56277 16.0305 5.57006 17.2854 6.38661 18.4058C7.14484 19.4217 8.1874 20.0342 9.29558 20.5421C11.1109 21.3712 13.0211 21.8119 14.9823 22.0285C16.1488 22.1555 17.3299 22.2078 17.9787 22.26Z" fill="black"/>
<path d="M16.3894 16.9941C16.4404 16.2845 16.6737 15.6571 17.1476 15.1342C17.6288 14.6039 17.6288 14.0586 17.1403 13.5283C16.1925 12.49 16.1561 10.9513 17.0601 9.89811C17.4101 9.48729 17.8985 9.42006 18.2485 9.73378C18.5984 10.0475 18.5984 10.533 18.2412 10.9513C17.8621 11.3995 17.8621 11.9522 18.2558 12.3929C19.3421 13.6104 19.3421 15.0595 18.2485 16.2621C17.8621 16.6878 17.8548 17.2555 18.2412 17.7037C18.5912 18.1145 18.5912 18.615 18.2412 18.9212C17.8985 19.2275 17.4246 19.1677 17.082 18.7718C16.6445 18.2788 16.4331 17.6663 16.3894 16.9941Z" fill="black"/>
<path d="M14.399 9.47982C14.7709 9.54704 15.0114 9.68896 15.1573 9.98774C15.3031 10.294 15.2739 10.5928 15.0698 10.8617C14.5376 11.5638 14.5521 11.8925 15.1208 12.5498C16.003 13.5656 16.0176 15.067 15.1573 16.0978C14.7927 16.531 14.3043 16.6057 13.947 16.2845C13.5898 15.9633 13.5971 15.4927 13.9616 15.067C14.348 14.6113 14.3334 14.0511 13.9178 13.5955C12.919 12.49 12.8607 10.9812 13.8012 9.92052C13.9616 9.72631 14.1949 9.62174 14.399 9.47982Z" fill="black"/>
</svg>
