<svg width="24" height="26" viewBox="0 0 24 26" fill="none" xmlns="http://www.w3.org/2000/svg">
<path fill-rule="evenodd" clip-rule="evenodd" d="M4 2.6H20C20.3536 2.6 20.6928 2.73696 20.9428 2.98076C21.1929 3.22456 21.3333 3.55522 21.3333 3.9V7.8H2.66667V3.9C2.66667 3.55522 2.80714 3.22456 3.05719 2.98076C3.30724 2.73696 3.64638 2.6 4 2.6ZM21.3333 22.1V10.4H2.66667V22.1C2.66667 22.4448 2.80714 22.7754 3.05719 23.0192C3.30724 23.263 3.64638 23.4 4 23.4H20C20.3536 23.4 20.6928 23.263 20.9428 23.0192C21.1929 22.7754 21.3333 22.4448 21.3333 22.1ZM0 3.9C0 2.86566 0.421427 1.87368 1.17157 1.14228C1.92172 0.410892 2.93913 0 4 0H20C21.0609 0 22.0783 0.410892 22.8284 1.14228C23.5786 1.87368 24 2.86566 24 3.9V22.1C24 23.1343 23.5786 24.1263 22.8284 24.8577C22.0783 25.5891 21.0609 26 20 26H4C2.93913 26 1.92172 25.5891 1.17157 24.8577C0.421427 24.1263 0 23.1343 0 22.1V3.9ZM5.33333 3.9C4.97971 3.9 4.64057 4.03696 4.39052 4.28076C4.14048 4.52456 4 4.85522 4 5.2C4 5.54478 4.14048 5.87544 4.39052 6.11924C4.64057 6.36304 4.97971 6.5 5.33333 6.5H8C8.35362 6.5 8.69276 6.36304 8.94281 6.11924C9.19286 5.87544 9.33333 5.54478 9.33333 5.2C9.33333 4.85522 9.19286 4.52456 8.94281 4.28076C8.69276 4.03696 8.35362 3.9 8 3.9H5.33333ZM14.6667 6.5C15.0203 6.5 15.3594 6.36304 15.6095 6.11924C15.8595 5.87544 16 5.54478 16 5.2C16 4.85522 15.8595 4.52456 15.6095 4.28076C15.3594 4.03696 15.0203 3.9 14.6667 3.9C14.313 3.9 13.9739 4.03696 13.7239 4.28076C13.4738 4.52456 13.3333 4.85522 13.3333 5.2C13.3333 5.54478 13.4738 5.87544 13.7239 6.11924C13.9739 6.36304 14.313 6.5 14.6667 6.5ZM20 5.2C20 5.54478 19.8595 5.87544 19.6095 6.11924C19.3594 6.36304 19.0203 6.5 18.6667 6.5C18.313 6.5 17.9739 6.36304 17.7239 6.11924C17.4738 5.87544 17.3333 5.54478 17.3333 5.2C17.3333 4.85522 17.4738 4.52456 17.7239 4.28076C17.9739 4.03696 18.313 3.9 18.6667 3.9C19.0203 3.9 19.3594 4.03696 19.6095 4.28076C19.8595 4.52456 20 4.85522 20 5.2ZM14.6667 16.9C14.6667 17.5896 14.3857 18.2509 13.8856 18.7385C13.3855 19.2261 12.7072 19.5 12 19.5C11.2928 19.5 10.6145 19.2261 10.1144 18.7385C9.61429 18.2509 9.33333 17.5896 9.33333 16.9C9.33333 16.2104 9.61429 15.5491 10.1144 15.0615C10.6145 14.5739 11.2928 14.3 12 14.3C12.7072 14.3 13.3855 14.5739 13.8856 15.0615C14.3857 15.5491 14.6667 16.2104 14.6667 16.9ZM17.3333 16.9C17.3333 18.2791 16.7714 19.6018 15.7712 20.577C14.771 21.5521 13.4145 22.1 12 22.1C10.5855 22.1 9.22896 21.5521 8.22876 20.577C7.22857 19.6018 6.66667 18.2791 6.66667 16.9C6.66667 15.5209 7.22857 14.1982 8.22876 13.223C9.22896 12.2479 10.5855 11.7 12 11.7C13.4145 11.7 14.771 12.2479 15.7712 13.223C16.7714 14.1982 17.3333 15.5209 17.3333 16.9Z" fill="#4A4A4A"/>
</svg>
