<svg xmlns="http://www.w3.org/2000/svg" viewBox="0 0 445.44 483.08"><g id="Capa_2" data-name="Capa 2"><g id="Capa_1-2" data-name="Capa 1"><path d="M441.65,483.08H3.79c-3-2.67-3.79-6-3.79-10Q.12,261.25.08,49.43C.08,19.67,19.68,0,49.34,0H396.13c29.66,0,49.24,19.65,49.24,49.43q0,211.82.07,423.63C445.44,477.07,444.71,480.42,441.65,483.08Zm-10.33-14.26V464q0-207.57,0-415.12c0-21.65-13.28-34.85-35.05-34.86Q222.64,14,49,14.05c-21.65,0-34.88,13.31-34.88,35q0,207.33,0,414.65v4.92H84V77.7c0-9.41,1.39-10.78,11-10.78H350.67c9.41,0,10.79,1.4,10.79,11V468.82ZM98.33,81.2V468.74h117.2V81.2ZM230,468.73H347V81.15H230Z"/><path d="M389.52,163.64c-2.34,2.2-3.64,3.54-5.07,4.74-3.27,2.77-7,2.76-9.75.07a6.72,6.72,0,0,1-.12-9.71c5.51-5.8,11.18-11.46,16.95-17,3.26-3.11,6.9-2.85,10.08.23,5.52,5.34,11,10.76,16.3,16.32,3.06,3.19,3,7.39.28,10.1s-6.66,2.76-10.09-.28c-1.27-1.13-2.47-2.34-4.7-4.46,0,6,0,10.87,0,15.77,0,3.76.1,7.53,0,11.29-.17,5-2.77,7.78-6.94,7.78s-6.81-2.81-6.86-7.79C389.45,182.12,389.52,173.53,389.52,163.64Z"/><path d="M389.51,254.77c0-9.81,0-18.28,0-26.76.05-5.46,2.45-8.27,6.85-8.29s6.88,2.76,7,8.21c.14,8.32.13,16.65.2,25,0,.13.16.25.63,1,1.43-1.32,2.78-2.65,4.23-3.87,3.16-2.65,7.14-2.62,9.78,0a6.85,6.85,0,0,1,0,9.76c-5.53,5.8-11.18,11.49-17,17-3.06,2.88-6.69,2.74-9.73-.18q-8.51-8.18-16.68-16.67c-2.91-3-2.84-7-.24-9.74s6.77-2.9,10.11,0C386,251.36,387.3,252.67,389.51,254.77Z"/></g></g></svg>