<svg width="44" height="27" viewBox="0 0 44 27" fill="none" xmlns="http://www.w3.org/2000/svg">
<path d="M21.9943 2.37012C22.8103 1.38993 23.7919 1.00046 24.9699 1.00695C28.8352 1.02642 32.7004 1.01344 36.5656 1.01344C38.6087 1.01344 40.0995 2.59731 40.1057 4.7654C40.1057 5.74558 40.1057 6.73226 40.1057 7.76437C40.3327 7.76437 40.529 7.76437 40.7315 7.76437C42.0506 7.77735 42.9893 8.76403 42.9954 10.1597C43.0015 12.3537 43.0015 14.5542 42.9954 16.7483C42.9893 19.4227 41.2039 21.409 38.6823 21.5648C38.6271 21.5713 38.5657 21.5778 38.4676 21.5908C38.6639 22.149 38.8479 22.6878 39.0381 23.2201C39.2161 23.7199 39.2222 24.2198 39.0259 24.7066C38.7068 25.4856 38.1424 25.94 37.3264 25.9854C36.9583 26.0049 36.5902 25.9984 36.222 25.9919C35.5901 25.9724 35.087 25.6803 34.7066 25.148C33.909 24.038 33.1115 22.928 32.3261 21.805C32.2034 21.6297 32.0746 21.5648 31.8721 21.5648C25.3012 21.5713 18.7242 21.5713 12.1533 21.5648C11.9324 21.5648 11.8036 21.6427 11.6747 21.8245C10.9017 22.928 10.1103 24.012 9.33107 25.1156C8.91387 25.6998 8.36783 26.0049 7.67454 25.9984C7.35551 25.9984 7.04261 26.0049 6.72357 25.9919C5.39835 25.94 4.521 24.5833 4.96274 23.2591C5.1468 22.7138 5.34313 22.1685 5.53946 21.5973C5.2327 21.5583 4.96274 21.5389 4.69279 21.4934C2.59452 21.1104 1.03002 19.1955 1.01162 16.9495C0.993211 14.6646 0.999346 12.3862 1.01162 10.1012C1.01775 8.7835 1.96259 7.79034 3.20805 7.75788C3.42892 7.75139 3.64979 7.75788 3.90747 7.75788C3.90747 6.95296 3.90134 6.18699 3.90747 5.42102C3.91361 4.94715 3.8952 4.4668 3.96883 3.99943C4.22037 2.36362 5.55173 1.1173 7.12236 1.01993C7.34937 1.00695 7.57024 1.01344 7.79725 1.01344C11.4293 1.01344 15.0553 1.0394 18.6874 1.00046C19.9758 0.987473 21.117 1.24712 21.9943 2.37012ZM21.982 19.9485C27.4608 19.9485 32.9458 19.9485 38.4246 19.9485C40.2284 19.9485 41.4677 18.6308 41.4739 16.7223C41.48 14.5672 41.4739 12.4186 41.4739 10.2635C41.4739 9.63386 41.2284 9.37421 40.6394 9.36772C39.6762 9.36122 38.7191 9.36772 37.7559 9.36772C37.1423 9.36772 36.8969 9.62088 36.8969 10.27C36.8969 12.0097 36.8969 13.7558 36.8969 15.4955C36.8969 16.2355 36.6331 16.5211 35.9337 16.5211C26.6264 16.5211 17.3254 16.5211 8.01812 16.5211C7.38618 16.5211 7.11009 16.2225 7.11009 15.5409C7.11009 13.7883 7.11009 12.0356 7.11009 10.283C7.11009 9.63386 6.87082 9.37421 6.26342 9.37421C5.31245 9.37421 4.36148 9.37421 3.41051 9.37421C2.76631 9.37421 2.53317 9.62088 2.53317 10.283C2.53317 12.4446 2.53317 14.6127 2.53317 16.7743C2.53317 16.9885 2.5393 17.2092 2.58225 17.4169C2.86447 18.9424 4.04245 19.942 5.57014 19.942C11.0367 19.955 16.5094 19.9485 21.982 19.9485ZM38.578 7.76437C38.578 7.62156 38.578 7.5177 38.578 7.41384C38.578 6.53752 38.578 5.6612 38.578 4.78487C38.578 3.48662 37.7681 2.62328 36.5411 2.62328C32.6329 2.62328 28.7309 2.62328 24.8227 2.62328C23.5588 2.62328 22.7612 3.48012 22.7612 4.81733C22.7612 6.66734 22.7612 8.51736 22.7612 10.3674C22.7612 10.4777 22.7612 10.5881 22.7612 10.7698C23.7367 9.96491 24.7859 9.78316 25.9148 9.78965C28.9395 9.81561 31.9642 9.79614 34.995 9.79614C35.1177 9.79614 35.2404 9.79614 35.357 9.79614C35.3815 9.72474 35.3999 9.67281 35.4122 9.62088C35.7128 8.43946 36.5349 7.76437 37.6884 7.75788C37.9706 7.75788 38.259 7.76437 38.578 7.76437ZM21.2274 10.7439C21.2335 10.6205 21.2458 10.5686 21.2458 10.5167C21.2458 8.58227 21.2458 6.64138 21.2458 4.70698C21.2458 4.51224 21.2213 4.3175 21.1722 4.12925C20.9329 3.201 20.1905 2.62328 19.2212 2.62328C15.3068 2.61678 11.3864 2.62328 7.47208 2.62328C7.34937 2.62328 7.22667 2.63626 7.10396 2.64924C6.25729 2.7531 5.49651 3.48662 5.45357 4.38241C5.39835 5.49242 5.4413 6.60892 5.4413 7.77735C6.98125 7.60858 8.23899 7.9656 8.64392 9.80263C8.77276 9.80263 8.88319 9.80263 8.99363 9.80263C12.1717 9.80263 15.3559 9.80263 18.534 9.80263C18.7487 9.80263 18.9635 9.81561 19.1782 9.84158C19.9206 9.93246 20.5832 10.2505 21.2274 10.7439ZM21.1967 14.8918C21.5526 12.6328 20.0003 11.406 18.626 11.4125C15.405 11.4319 12.184 11.419 8.96909 11.419C8.87092 11.419 8.77276 11.4255 8.66232 11.4319C8.66232 12.5939 8.66232 13.7299 8.66232 14.8918C12.8527 14.8918 17.0247 14.8918 21.1967 14.8918ZM35.357 11.419C35.13 11.419 34.9398 11.419 34.7434 11.419C31.6022 11.419 28.467 11.4125 25.3258 11.419C23.6386 11.4255 22.3502 13.217 22.8103 14.8853C26.9884 14.8853 31.1604 14.8853 35.3508 14.8853C35.357 13.7299 35.357 12.5939 35.357 11.419ZM9.93846 21.5648C9.01203 21.5648 8.16536 21.5583 7.31869 21.5713C7.25121 21.5713 7.15304 21.6557 7.1285 21.7206C6.87695 22.4152 6.62541 23.1162 6.39227 23.8173C6.31251 24.0575 6.40454 24.3042 6.62541 24.3301C7.03647 24.382 7.45981 24.3496 7.87087 24.3366C7.92609 24.3366 7.99971 24.2652 8.04266 24.2133C8.65619 23.3564 9.26971 22.4931 9.93846 21.5648ZM34.0624 21.5648C34.725 22.4931 35.3386 23.3564 35.9644 24.2068C36.0318 24.2977 36.173 24.3626 36.2773 24.3691C36.5902 24.3885 36.9092 24.3885 37.2282 24.3756C37.5473 24.3561 37.7068 24.1029 37.5963 23.7913C37.3693 23.1098 37.1301 22.4282 36.8785 21.7531C36.8478 21.6752 36.7435 21.5713 36.6761 21.5713C35.8355 21.5583 34.9888 21.5648 34.0624 21.5648Z" fill="black" stroke="black" stroke-width="0.8"/>
</svg>
