<svg width="18" height="26" viewBox="0 0 18 26" fill="none" xmlns="http://www.w3.org/2000/svg">
<path d="M9 0C7.23 0 6.059 0.984 5.594 2C5.242 2.77 5.285 3.305 5.281 3.75C4.51046 4.27793 3.7889 4.87399 3.125 5.531C1.727 6.93 0.961 8.921 1 11.031C1.02 12.004 1.219 12.981 1.594 13.969C1.781 14.465 2.125 15.324 2.438 16.281C2.75 17.238 3 18.293 3 19H1.906C1.64078 19.0084 1.38975 19.1217 1.20812 19.3152C1.02649 19.5086 0.929146 19.7663 0.9375 20.0315C0.945854 20.2967 1.05922 20.5478 1.25267 20.7294C1.44611 20.911 1.70378 21.0084 1.969 21L0.188 23.406L0 23.656V26H18V23.656L16 21C16.36 21.004 16.695 20.816 16.879 20.504C16.9673 20.3507 17.0137 20.1769 17.0137 20C17.0137 19.8231 16.9673 19.6493 16.879 19.496C16.695 19.184 16.359 18.996 16 19H15C15 16.738 13.594 14.664 12.281 13.062C11.531 12.145 11.285 11.984 10.781 11.5C10.961 11.395 11.184 11.27 11.313 11.187C11.473 11.086 11.559 11.023 11.593 11C11.875 11 11.895 11.047 12.188 11.281C12.48 11.516 13.078 12 13.906 12C14.633 12 15.164 11.531 15.438 11.187C15.688 10.871 15.824 10.633 15.844 10.594C15.934 10.551 16.129 10.488 16.375 10.313C16.621 10.137 16.941 9.746 17 9.313C17.059 8.879 16.922 8.5 16.75 8.125C16.496 7.57 16.023 6.934 15.281 6.156C14.539 5.379 13.566 4.555 12.375 4.062C12.285 4.023 12.359 4.082 12.312 4.032C12.266 3.98 12.125 3.77 11.844 3.562C11.477 3.293 10.68 3.262 10 3.187V0H9ZM8 2.219V5H9C10.363 5 10.664 5.164 10.656 5.156C10.652 5.152 10.66 5.172 10.813 5.344C11.0387 5.59714 11.3154 5.79959 11.625 5.938C12.425 6.27 13.227 6.918 13.844 7.562C14.422 8.164 14.809 8.762 14.875 8.875C14.715 8.953 14.547 9.008 14.344 9.25C14.07 9.582 13.973 9.813 13.875 9.938C13.844 9.977 13.848 9.988 13.844 10C13.758 9.988 13.699 9.934 13.437 9.719C13.109 9.453 12.457 9 11.594 9C10.937 9 10.566 9.3 10.25 9.5C9.934 9.7 9.68 9.844 9.594 9.875L9.562 9.906H9.532C9.348 9.984 9.032 10 9.032 10L8 9.969V11.563L8.344 11.843C8.344 11.843 9.531 12.891 10.719 14.343C11.906 15.798 13 17.669 13 19H5C5 17.879 4.687 16.703 4.344 15.656C4 14.609 3.594 13.696 3.438 13.281C3.16245 12.541 3.01435 11.7596 3 10.97C2.969 9.364 3.543 7.927 4.531 6.939C5.184 6.286 6.156 5.469 6.687 5.157L7.187 4.876V4.313C7.187 3.943 7.187 3.321 7.407 2.845C7.52265 2.57161 7.73327 2.34927 8 2.219ZM4.5 21H13.5L15.75 24H2.25L4.5 21Z" fill="#4A4A4A"/>
</svg>
