<svg width="23" height="21" viewBox="0 0 23 21" fill="none" xmlns="http://www.w3.org/2000/svg">
<path d="M0 14.3684C1.9205 13.5395 3.8295 12.7105 5.75 12.3458V3.31579C5.75 2.43639 6.11348 1.593 6.76048 0.971172C7.40748 0.349341 8.285 0 9.2 0C10.7065 0 11.983 0.917368 12.4545 2.21053H9.2C8.895 2.21053 8.60249 2.32697 8.38683 2.53425C8.17116 2.74153 8.05 3.02266 8.05 3.31579V4.42105H13.8V3.31579C13.8 2.43639 14.1635 1.593 14.8105 0.971172C15.4575 0.349341 16.335 0 17.25 0C18.7565 0 20.033 0.917368 20.5045 2.21053H17.25C16.945 2.21053 16.6525 2.32697 16.4368 2.53425C16.2212 2.74153 16.1 3.02266 16.1 3.31579V14.3021C18.4 13.9484 20.7 12.1579 23 12.1579V14.3684C20.447 14.3684 17.894 16.5789 15.3295 16.5789C12.7765 16.5789 10.2235 14.3684 7.6705 14.3684C5.106 14.3684 2.553 15.4737 0 16.5789V14.3684ZM13.8 6.63158H8.05V8.8421H13.8V6.63158ZM13.8 11.0526H8.05V12.1579C9.9705 12.3347 11.8795 13.6058 13.8 14.1363V11.0526ZM0 18.7895C2.553 17.6842 5.106 16.5789 7.6705 16.5789C10.2235 16.5789 12.7765 18.7895 15.3295 18.7895C17.894 18.7895 20.447 16.5789 23 16.5789V18.7895C20.447 18.7895 17.894 21 15.3295 21C12.7765 21 10.2235 18.7895 7.6705 18.7895C5.106 18.7895 2.553 19.8947 0 21V18.7895Z" fill="#4A4A4A"/>
</svg>
