<svg width="31" height="31" viewBox="0 0 31 31" fill="none" xmlns="http://www.w3.org/2000/svg">
<path d="M3.03043 22.8358C2.91093 21.7784 3.3804 20.9513 3.84134 20.1156C5.24122 17.6085 6.62403 15.1015 8.01538 12.5945C8.16049 12.3301 8.26292 12.0573 8.40803 11.7929C8.83482 11.0254 9.46648 10.4626 10.303 10.0704C9.32137 9.00447 8.92872 7.78506 9.29576 6.37805C9.5433 5.43152 10.0981 4.68964 10.9261 4.16947C12.5906 3.12061 14.7929 3.56403 15.9367 5.16717C17.2341 6.98349 16.7561 9.02152 14.5965 10.744C15.4672 11.4348 15.7403 12.4751 16.133 13.4387C16.739 14.948 17.3451 16.4659 17.9341 17.9923C18.045 18.2822 18.1901 18.4186 18.4974 18.4528C20.29 18.6745 22.0825 18.9132 23.8665 19.1605C24.2848 19.2202 24.703 19.3055 25.1127 19.4163C25.6846 19.5698 26.12 19.9195 26.4358 20.4311C27.8186 22.6653 29.2099 24.8994 30.5928 27.1336C31.3525 28.37 31.0196 29.8794 29.8416 30.6127C28.638 31.3631 27.1528 30.9965 26.3675 29.7429C25.3005 28.046 24.2421 26.3405 23.2007 24.6351C23.0129 24.3196 22.8166 24.1916 22.4325 24.1916C15.3221 24.2087 8.20317 24.2002 1.09279 24.2002C0.964748 24.2002 0.83671 24.2087 0.708672 24.2002C0.264806 24.1746 -0.00834149 23.9188 0.000194385 23.518C0.000194385 23.1428 0.264806 22.8614 0.683064 22.8529C1.29765 22.8358 1.90369 22.8443 2.51828 22.8443C2.68046 22.8358 2.8341 22.8358 3.03043 22.8358ZM11.9504 11.0937C10.8834 11.0851 9.92741 11.6991 9.47501 12.6797C9.34698 12.9526 9.21894 13.217 9.07383 13.4813C7.65687 16.0395 6.23138 18.5892 4.82296 21.1559C4.64371 21.4885 4.49006 21.8466 4.39617 22.2133C4.35349 22.3668 4.43885 22.6567 4.54981 22.7164C4.72053 22.8017 5.01929 22.8102 5.1644 22.7079C5.41194 22.5459 5.62534 22.29 5.79605 22.0342C6.93132 20.3799 8.04952 18.7256 9.17626 17.0628C9.6628 16.338 10.2262 16.3721 10.6103 17.1395C11.2932 18.4954 11.9846 19.8512 12.6589 21.2071C13.2137 22.3071 14.0844 22.8443 15.3221 22.8358C17.8828 22.8187 20.4436 22.8443 23.0044 22.8273C23.4909 22.8273 23.7982 22.9893 24.0372 23.4071C24.5408 24.2769 25.0957 25.1211 25.6249 25.9824C26.2651 27.0057 26.8882 28.0375 27.5369 29.0607C27.8186 29.5127 28.2795 29.7174 28.7319 29.615C29.2014 29.5042 29.5599 29.2142 29.6026 28.7367C29.6282 28.4212 29.5429 28.046 29.3807 27.7817C28.1259 25.701 26.8028 23.6629 25.5651 21.5738C25.1554 20.883 24.6262 20.6102 23.8921 20.5249C21.8776 20.2691 19.8632 19.9877 17.8487 19.7404C17.3109 19.6722 17.0293 19.4334 16.8329 18.9303C16.0476 16.8752 15.2282 14.8372 14.4087 12.7906C14.0161 11.7503 13.0686 11.1107 11.9504 11.0937ZM6.93132 22.7932C8.68118 22.7932 10.3627 22.7932 11.9846 22.7932C11.259 21.3947 10.542 20.0133 9.79084 18.5721C8.82629 19.9962 7.89588 21.3691 6.93132 22.7932Z" fill="black"/>
<path d="M26.5297 11.9208C26.0602 11.9293 25.7785 11.5541 25.8639 11.051C25.9663 10.42 26.1541 9.78898 26.1285 9.15796C26.0943 8.30523 25.9748 7.43544 25.7358 6.60829C25.3688 5.32066 24.9164 4.05862 25.053 2.69424C25.1213 1.98648 25.2493 1.28723 25.3944 0.59652C25.4883 0.136045 25.8383 -0.0771385 26.2309 0.0251894C26.615 0.11899 26.8114 0.468611 26.6919 0.929086C26.2309 2.63455 26.3248 4.28885 26.965 5.94316C27.6393 7.69979 27.6564 9.49052 27.1955 11.2983C27.0845 11.7247 26.8797 11.9123 26.5297 11.9208Z" fill="black"/>
<path d="M30.9171 8.91068C30.7891 9.70372 30.6867 10.5053 30.533 11.2983C30.4391 11.7844 30.0892 12.0061 29.6794 11.9038C29.3124 11.81 29.1075 11.4689 29.227 11.0255C29.688 9.26029 29.5087 7.5463 28.86 5.84936C28.2027 4.12684 28.2625 2.37021 28.7234 0.613582C28.8429 0.153106 29.1587 -0.0600769 29.5599 0.0337237C29.9526 0.118997 30.1574 0.477145 30.0294 0.929093C29.5685 2.63456 29.6624 4.28886 30.294 5.94316C30.6696 6.8897 30.8659 7.87887 30.9171 8.91068Z" fill="black"/>
<path d="M23.4312 0.553892C23.3287 1.03995 23.2434 1.38957 23.1751 1.73919C22.9105 3.09504 23.0471 4.4253 23.5421 5.71293C24.2335 7.52072 24.336 9.3541 23.8665 11.2301C23.7299 11.7588 23.4482 11.9976 23.0129 11.9038C22.6032 11.8185 22.4239 11.4603 22.552 10.9317C22.9532 9.31146 22.8678 7.72538 22.2618 6.16487C21.5874 4.4253 21.5277 2.65162 21.9715 0.852349C22.0057 0.698857 22.0398 0.545365 22.0996 0.4004C22.2532 0.0763618 22.552 -0.0856574 22.8678 0.0507799C23.1239 0.161635 23.2861 0.417455 23.4312 0.553892Z" fill="black"/>
</svg>
