<svg width="29" height="20" viewBox="0 0 29 20" fill="none" xmlns="http://www.w3.org/2000/svg">
<path d="M7.975 11.4286C9.97703 11.4286 11.6 9.82959 11.6 7.85714C11.6 5.8847 9.97703 4.28571 7.975 4.28571C5.97297 4.28571 4.35 5.8847 4.35 7.85714C4.35 9.82959 5.97297 11.4286 7.975 11.4286Z" fill="black"/>
<path d="M22.0473 1.42857H14.5C13.6982 1.42857 13.05 2.06714 13.05 2.85714V12.8571H2.9V0H0V20H2.9V15.7143H26.1V20H29V8.27857C29 4.50143 25.8811 1.42857 22.0473 1.42857ZM15.95 12.8571V4.28571H22.0473C24.2817 4.28571 26.1 6.07714 26.1 8.27857V12.8571H15.95Z" fill="black"/>
</svg>
