<svg width="31" height="30" viewBox="0 0 31 30" fill="none" xmlns="http://www.w3.org/2000/svg">
<path d="M27.9 10.3532V0H24.8V3.15789H6.2V0H3.1V10.3532C1.2555 11.4474 0 13.4605 0 15.7895V22.1053C0 22.9784 0.6944 23.6842 1.55 23.6842H3.1V30H6.2V23.6842H24.8V30H27.9V23.6842H29.45C30.3071 23.6842 31 22.9784 31 22.1053V15.7895C31 13.4605 29.7429 11.4474 27.9 10.3532ZM24.8 6.31579V9.47368H17.05V6.31579H24.8ZM6.2 6.31579H13.95V9.47368H6.2V6.31579ZM27.9 20.5263H3.1V15.7895C3.1 14.0479 4.49035 12.6316 6.2 12.6316H24.8C26.5096 12.6316 27.9 14.0479 27.9 15.7895V20.5263Z" fill="#4A4A4A"/>
</svg>
