<svg width="28" height="29" viewBox="0 0 28 29" fill="none" xmlns="http://www.w3.org/2000/svg">
<path d="M6.59157 21.9847C6.25612 21.9726 5.92067 21.9806 5.58117 21.9766C4.37679 21.9766 3.1724 21.9806 1.96801 21.9726C1.77401 21.9726 1.72147 22.0332 1.7336 22.2113C1.74572 22.4176 1.73764 22.628 1.73764 22.8626C3.76651 22.8626 5.76709 22.8626 7.8 22.8626C7.76362 22.7817 7.74746 22.717 7.71108 22.6603C7.45646 22.2436 7.08464 22.0009 6.59157 21.9847Z" fill="black"/>
<path d="M21.42 21.9806C21.129 21.9806 20.8622 22.0817 20.6359 22.2598C20.4419 22.4135 20.2803 22.5955 20.2277 22.8585C22.2445 22.8585 24.2491 22.8585 26.2577 22.8585C26.2577 22.5591 26.2577 22.28 26.2577 21.9968C26.1971 21.9887 26.1527 21.9806 26.1082 21.9806C24.5441 21.9806 22.98 21.9806 21.42 21.9806Z" fill="black"/>
<path d="M19.1771 18.4851C19.3872 18.4851 19.5933 18.4851 19.8035 18.4851C19.8884 18.4851 19.9732 18.4851 20.0743 18.4851C20.0743 18.3799 20.0743 18.2747 20.0743 18.1736C20.0743 18.1412 20.0743 18.1129 20.0743 18.0805C20.0743 17.9227 20.0743 17.7649 20.0743 17.6031C18.6314 17.6031 17.1886 17.6031 15.7417 17.6031L9.57024 17.6072C9.29946 17.6072 9.02463 17.6072 8.75384 17.6072C8.75384 17.9065 8.75384 18.1857 8.75384 18.4891C8.85084 18.4891 8.93976 18.4891 9.02463 18.4891C11.1828 18.4891 13.341 18.4891 15.4992 18.4932C15.4992 18.4932 17.9525 18.4851 19.1771 18.4851Z" fill="black"/>
<path d="M27.6117 12.3602C27.349 12.3359 27.1672 12.5099 27.1389 12.8214C27.1065 13.137 27.0782 13.4525 27.05 13.7681C26.8115 16.1348 26.5731 18.5015 26.3427 20.8682C26.3225 21.0786 26.2578 21.1312 26.0517 21.1272C24.5038 21.1191 22.9558 21.115 21.4039 21.1312C20.2844 21.1393 19.3952 21.9727 19.274 23.0893C19.2214 23.5667 19.375 23.7407 19.8479 23.7407C20.2035 23.7407 20.5552 23.7407 20.9189 23.7407C20.9149 23.8135 20.9149 23.862 20.9108 23.9065C20.7451 24.9018 20.5794 25.901 20.4097 26.8963C20.3248 27.4141 20.2318 27.932 20.151 28.4498C20.1065 28.7532 20.2763 28.9838 20.539 29C20.7855 29.0162 20.9593 28.8422 21.0159 28.5024C21.1614 27.6447 21.2988 26.787 21.4403 25.9294C21.5615 25.2052 21.6828 24.481 21.808 23.7366C21.9778 23.7366 22.1354 23.7366 22.2971 23.7366C23.2792 23.7366 24.2653 23.7407 25.2474 23.7326C25.4212 23.7326 25.4859 23.7852 25.498 23.9551C25.5061 24.1088 25.5505 24.2585 25.5748 24.4122C25.8052 25.7999 26.0315 27.1916 26.2619 28.5793C26.3103 28.8665 26.5205 29.0364 26.763 28.9919C27.0297 28.9434 27.1672 28.729 27.1146 28.4296C26.9085 27.1997 26.7024 25.9739 26.4963 24.744C26.4397 24.4163 26.3912 24.0886 26.3346 23.7487C26.4114 23.7447 26.4599 23.7407 26.5043 23.7407C27.0015 23.7407 27.1227 23.6152 27.1267 23.1217C27.1308 22.5472 27.1025 21.9727 27.147 21.4023C27.2237 20.3949 27.345 19.3916 27.446 18.3842C27.6279 16.5596 27.8057 14.735 27.9876 12.9145C28.028 12.5949 27.8866 12.3845 27.6117 12.3602Z" fill="black"/>
<path d="M6.67636 21.1313C6.06609 21.1151 5.45177 21.1232 4.84149 21.1232C3.85939 21.1232 2.87325 21.1232 1.89115 21.1232C1.77394 21.1232 1.68907 21.1191 1.67694 20.9614C1.47891 18.9223 1.27279 16.8833 1.07071 14.8443C1.002 14.1404 0.933294 13.4364 0.852463 12.7325C0.82013 12.4695 0.609968 12.3239 0.367474 12.3603C0.129022 12.3967 -0.0164748 12.603 0.00777462 12.8619C0.0401072 13.1694 0.0724397 13.4769 0.100731 13.7884C0.270477 15.5038 0.444264 17.2232 0.61401 18.9385C0.755465 20.3586 0.941377 21.7786 0.876712 23.2107C0.876712 23.2229 0.876712 23.2391 0.876712 23.2512C0.884795 23.5749 1.04242 23.7326 1.36574 23.7367C1.4587 23.7367 1.55165 23.7367 1.6729 23.7367C1.49103 24.8411 1.3132 25.9051 1.13537 26.9651C1.0505 27.4627 0.965627 27.9603 0.880754 28.458C0.844379 28.6805 0.937336 28.8625 1.11921 28.9475C1.28895 29.0284 1.51124 29.0001 1.61632 28.8504C1.68503 28.7493 1.72948 28.6198 1.74969 28.4984C2.00835 26.9692 2.26701 25.4359 2.51759 23.8985C2.5378 23.769 2.5863 23.7367 2.71158 23.7367C3.81089 23.7407 4.90616 23.7407 6.00546 23.7367C6.16309 23.7367 6.21158 23.7893 6.23179 23.9349C6.32475 24.5418 6.42983 25.1446 6.53087 25.7514C6.68445 26.6819 6.83803 27.6124 6.99161 28.5429C7.02394 28.7331 7.0886 28.8949 7.2826 28.9677C7.62209 29.0972 7.91308 28.814 7.84842 28.4054C7.66655 27.3171 7.48468 26.2248 7.30281 25.1365C7.22602 24.6793 7.15327 24.2222 7.07244 23.7367C7.16135 23.7367 7.22602 23.7367 7.29068 23.7367C7.61401 23.7367 7.93733 23.7407 8.26066 23.7367C8.56782 23.7326 8.74161 23.5587 8.74161 23.2633C8.74161 22.1467 7.79184 21.1555 6.67636 21.1313Z" fill="black"/>
<path d="M17.0066 28.1331C16.2306 28.1331 15.4586 28.1331 14.6826 28.1331C14.6059 28.1331 14.525 28.1331 14.4361 28.1331C14.4361 25.1919 14.4361 22.2831 14.4361 19.3459C14.5291 19.3459 14.6059 19.3459 14.6867 19.3459C16.3357 19.3459 17.9846 19.3459 19.6336 19.3459C19.6619 19.3459 19.6902 19.3459 19.7184 19.3419C19.9529 19.3419 20.1913 19.3419 20.4257 19.3419C20.7975 19.3419 20.9471 19.1881 20.9471 18.8119C20.9471 18.4154 20.9471 18.0189 20.9471 17.6103C21.0037 17.6063 21.0522 17.6022 21.0926 17.5982C21.2057 17.5982 21.3189 17.5982 21.4321 17.5982C21.4482 17.5982 21.4604 17.5982 21.4725 17.5941C21.7029 17.5739 21.8726 17.3878 21.8726 17.1653C21.8726 16.9307 21.6867 16.7446 21.428 16.7365C21.2987 16.7324 21.1734 16.7486 21.0441 16.7446C19.3507 16.7405 17.6613 16.7365 15.9679 16.7324C15.7415 16.7324 15.5152 16.7324 15.2848 16.7324C15.006 16.7324 14.7231 16.7324 14.4402 16.7324C14.4402 13.7953 14.4402 10.8783 14.4402 7.95738C14.5735 7.95738 14.7109 7.95738 14.8443 7.95738C14.8766 7.95738 14.9049 7.95738 14.9373 7.95738C15.1838 7.95738 15.4263 7.95738 15.6688 7.95738C16.1457 7.95738 16.6266 7.95738 17.1035 7.95738C17.148 7.95738 17.1965 7.95738 17.245 7.95738C17.6613 7.95738 18.0776 7.95738 18.4939 7.95738C18.5302 7.95738 18.5626 7.95738 18.5989 7.95738C18.7606 7.95738 18.9263 7.95738 19.088 7.95738C19.096 7.95738 19.1041 7.95738 19.1122 7.95738C20.066 7.95738 21.0239 7.96143 21.9777 7.96143C22.0141 7.96143 22.0424 7.95738 22.0747 7.95334C22.2363 7.92906 22.3576 7.8441 22.4748 7.7106C22.5475 7.76319 22.6163 7.81983 22.689 7.86029C22.7537 7.8967 22.8224 7.94929 22.8911 7.94929C24.435 7.95334 25.9748 7.94929 27.5187 7.94524C27.7895 7.94524 27.943 7.82387 27.9875 7.59327C28.032 7.3829 27.9269 7.20893 27.6925 7.10375C25.7444 6.22179 23.7923 5.33984 21.8443 4.45789C19.9367 3.59616 18.0291 2.73444 16.1255 1.86867C15.9113 1.77157 15.7011 1.67447 15.4869 1.57738C15.1393 1.4196 14.7877 1.25777 14.4402 1.09594C14.129 0.954347 13.8743 0.954347 13.5672 1.09594C11.1018 2.22468 8.62838 3.33724 6.15494 4.45384C4.20286 5.34793 2.25482 6.22989 0.302742 7.11184C0.0683312 7.21703 -0.032708 7.39503 0.00770766 7.60136C0.0562065 7.83197 0.205745 7.95334 0.47653 7.95334C2.02041 7.95738 3.56025 7.96143 5.10413 7.95738C5.17283 7.95738 5.24154 7.90479 5.30621 7.86838C5.37895 7.82387 5.44362 7.77128 5.52041 7.71869C5.66187 7.88051 5.80332 7.96952 6.01752 7.96952C8.39397 7.96143 10.7704 7.96547 13.1509 7.96143C13.2843 7.96143 13.4176 7.96143 13.5551 7.96143C13.5551 10.8945 13.5551 13.8074 13.5551 16.7365C13.3085 16.7365 13.0781 16.7365 12.8518 16.7365C11.4656 16.7365 10.0793 16.7365 8.689 16.7365C7.98981 16.7365 7.28658 16.7324 6.58738 16.7365C6.31256 16.7365 6.12665 16.9226 6.13069 17.1693C6.13473 17.4202 6.3166 17.5941 6.59547 17.5941C6.95921 17.5982 7.32295 17.5941 7.68669 17.5941C7.74327 17.5941 7.8039 17.6022 7.88069 17.6063C7.88069 18.0149 7.88069 18.4114 7.88069 18.8078C7.88069 19.1841 8.03022 19.3378 8.40205 19.3378C9.70748 19.3378 11.0169 19.3378 12.3224 19.3378C12.7265 19.3378 13.1307 19.3378 13.5591 19.3378C13.5591 22.279 13.5591 25.1919 13.5591 28.125C13.2398 28.125 12.9367 28.125 12.6376 28.125C12.0839 28.125 11.5343 28.1209 10.9806 28.125C10.7057 28.125 10.5198 28.2989 10.5117 28.5498C10.5037 28.7925 10.6936 28.9746 10.9684 28.9867C11.021 28.9908 11.0776 28.9867 11.1301 28.9867C12.4638 28.9867 13.7975 28.9867 15.1313 28.9867C15.7658 28.9867 16.3963 28.9908 17.0308 28.9867C17.3865 28.9827 17.5966 28.6914 17.4713 28.388C17.3824 28.1978 17.2127 28.1331 17.0066 28.1331ZM15.8749 2.71825C19.0678 4.15851 22.2646 5.60281 25.4575 7.04711C25.4534 7.06329 25.4534 7.07947 25.4494 7.09566C25.409 7.09566 25.3686 7.09566 25.3281 7.09566C25.3241 7.09566 25.3241 7.09566 25.3201 7.09566C23.5499 7.09566 21.7796 7.09566 20.0135 7.09161C19.9286 7.09161 19.8195 7.03497 19.7589 6.97429C18.8212 5.97096 17.8876 4.96359 16.954 3.95622C16.5822 3.5557 16.2144 3.15923 15.8426 2.75871C15.8547 2.74253 15.8628 2.73039 15.8749 2.71825ZM7.96556 7.09161C6.19535 7.0997 4.42514 7.09566 2.65898 7.09566C2.62665 7.09566 2.59431 7.09161 2.54177 7.04306C5.73057 5.60281 8.91937 4.15851 12.1082 2.71825C12.1203 2.73039 12.1284 2.74657 12.1405 2.75871C11.7687 3.15923 11.4009 3.5557 11.0291 3.95622C10.0955 4.96359 9.16186 5.97096 8.22422 6.97429C8.15956 7.03497 8.05043 7.09161 7.96556 7.09161ZM11.3079 7.08352C10.6411 7.08352 9.97422 7.08352 9.30332 7.08352C10.8836 5.3803 12.4315 3.70944 13.9835 2.03454V2.03049C14.0522 2.10331 14.1047 2.15591 14.1572 2.21255C14.2745 2.33796 14.3917 2.46742 14.5089 2.59284V2.60093C15.883 4.08164 17.2571 5.5664 18.6555 7.07138C18.6596 7.07543 18.6636 7.07947 18.6676 7.08352C18.6555 7.08352 18.6434 7.08352 18.6272 7.08352C17.9684 7.08352 17.3137 7.08352 16.663 7.08352C16.0325 7.08352 15.4061 7.08352 14.7796 7.08352C13.6278 7.08352 12.4679 7.08352 11.3079 7.08352Z" fill="black"/>
</svg>
