<svg width="28" height="26" viewBox="0 0 28 26" fill="none" xmlns="http://www.w3.org/2000/svg">
<path d="M15.3997 12.3514V11.3721C17.8132 10.7308 19.5995 8.46444 19.5995 5.77778C19.5995 2.59133 17.088 0 13.9997 0C10.9114 0 8.39988 2.59133 8.39988 5.77778H11.1998C11.1998 4.18456 12.4556 2.88889 13.9997 2.88889C15.5439 2.88889 16.7996 4.18456 16.7996 5.77778C16.7996 7.371 15.5439 8.66667 13.9997 8.66667C13.2269 8.66667 12.5998 9.31233 12.5998 10.1111V12.3514L0.469124 23.4766C0.0351376 23.8738 -0.114658 24.5093 0.0911359 25.0698C0.29693 25.6302 0.819114 26 1.4001 26H26.5993C27.1803 26 27.7011 25.6288 27.9083 25.0683C28.1155 24.5079 27.9643 23.8738 27.5289 23.4751L15.3997 12.3514ZM5.08198 23.1111L13.9997 14.9327L22.9174 23.1111H5.08198Z" fill="black"/>
</svg>
